<?xml version="1.0" encoding="UTF-8" standalone="no"?>
<!DOCTYPE svg PUBLIC "-//W3C//DTD SVG 1.1//EN" "http://www.w3.org/Graphics/SVG/1.1/DTD/svg11.dtd">
<svg width="100%" height="100%" viewBox="0 0 1689 1692" version="1.1" xmlns="http://www.w3.org/2000/svg" xmlns:xlink="http://www.w3.org/1999/xlink" xml:space="preserve" xmlns:serif="http://www.serif.com/" style="fill-rule:evenodd;clip-rule:evenodd;stroke-linejoin:round;stroke-miterlimit:2;">
    <g transform="matrix(1,0,0,1,-285.011,-1745.82)">
        <g id="g48">
            <g id="g10">
            </g>
            <g id="path22" transform="matrix(1.90188,0,0,1.95582,-317.804,-478.739)">
                <rect x="316.958" y="1137.4" width="887.982" height="864.68" style="fill:rgb(23,150,9);fill-rule:nonzero;"/>
            </g>
            <g id="g47">
            </g>
            <g transform="matrix(1.51987,0,0,1.37133,65.8343,-904.258)">
                <ellipse cx="694.312" cy="2557.15" rx="488.946" ry="541.186" style="fill:rgb(183,239,92);"/>
            </g>
            <g transform="matrix(1.54596,0,0,1.54596,-1702.58,1103.78)">
                <g id="path12" transform="matrix(1,0,0,1,-5.6051,-641.046)">
                    <path d="M1692.58,1775.93C1692.58,1712.41 1765.73,1660.93 1855.97,1660.93C1946.21,1660.93 2019.37,1712.41 2019.37,1775.93C2019.37,1839.45 1946.21,1890.93 1855.97,1890.93C1765.73,1890.93 1692.58,1839.45 1692.58,1775.93Z" style="fill:rgb(61,127,232);fill-rule:nonzero;"/>
                </g>
                <g id="path13" transform="matrix(1,0,0,1,-5.6051,-641.046)">
                    <path d="M1588.78,1596.85C1587.19,1590.86 1584.37,1550.53 1577.21,1526.43C1573.85,1515.11 1562.79,1508.68 1562.79,1508.68C1562.79,1508.68 1541.99,1491.25 1538.82,1480.19C1535.56,1468.83 1538.98,1452.45 1538.98,1452.45C1538.98,1452.45 1521.35,1446.44 1516.85,1433.54C1513.27,1423.28 1522.45,1410.97 1519.13,1402.54C1510.24,1379.98 1503.63,1373.7 1503.63,1373.7C1503.63,1373.7 1505.13,1372.34 1510.08,1349.8C1513.33,1334.97 1496.65,1317.44 1499.2,1313.53C1502.5,1308.45 1500.03,1288.79 1511.21,1276.81C1529.13,1257.6 1533.5,1273.38 1555.94,1263.85C1568.6,1258.48 1587.78,1264.64 1598.33,1270.16C1610.67,1276.61 1637.62,1276.69 1651.78,1293.8C1662.68,1306.98 1673.7,1314.84 1684.91,1322.84C1702.62,1335.5 1716.94,1361.02 1716.94,1361.02L1712.92,1374.73" style="fill:rgb(223,170,122);fill-rule:nonzero;"/>
                </g>
                <g id="path14" transform="matrix(1,0,0,1,-5.6051,-641.046)">
                    <path d="M2074.67,1620.75C2076.26,1614.76 2079.08,1574.43 2086.24,1550.33C2089.6,1539.01 2100.66,1532.58 2100.66,1532.58C2100.66,1532.58 2121.46,1515.15 2124.63,1504.09C2127.89,1492.73 2124.47,1476.35 2124.47,1476.35C2124.47,1476.35 2142.1,1470.34 2146.6,1457.44C2150.18,1447.18 2141,1434.87 2144.32,1426.44C2153.21,1403.88 2159.82,1397.6 2159.82,1397.6C2159.82,1397.6 2158.32,1396.24 2153.37,1373.7C2150.12,1358.87 2166.8,1341.34 2164.25,1337.43C2160.95,1332.35 2163.42,1312.69 2152.24,1300.71C2134.32,1281.5 2129.95,1297.28 2107.51,1287.75C2094.85,1282.38 2075.67,1288.54 2065.12,1294.06C2052.78,1300.51 2025.83,1300.59 2011.67,1317.7C2000.77,1330.88 1989.75,1338.74 1978.54,1346.74C1960.83,1359.4 1946.51,1384.92 1946.51,1384.92L1950.53,1398.63" style="fill:rgb(223,170,122);fill-rule:nonzero;"/>
                </g>
                <g id="path15" transform="matrix(1,0,0,1,-5.6051,-641.046)">
                    <path d="M1615.97,1567.33C1606.96,1536.7 1529.06,1350.98 1546.59,1325.21C1577.42,1279.9 1692.41,1388.23 1692.41,1388.23" style="fill:rgb(202,191,175);fill-rule:nonzero;"/>
                </g>
                <g id="path16" transform="matrix(1,0,0,1,-5.6051,-641.046)">
                    <path d="M2049.51,1589.36C2058.52,1558.73 2136.42,1373.01 2118.89,1347.24C2088.06,1301.93 1973.07,1410.26 1973.07,1410.26" style="fill:rgb(202,191,175);fill-rule:nonzero;"/>
                </g>
                <g id="path17" transform="matrix(1,0,0,1,-5.6051,-641.046)">
                    <path d="M1833.13,1344.76C1842.15,1345.69 1846.69,1359.43 1860.2,1358.34C1870.36,1357.51 1882.81,1353.3 1894.49,1349.72C1907.34,1345.77 1917.82,1355.92 1924.76,1358.79C1931.97,1361.77 1948.7,1370.24 1948.7,1370.24L1983.32,1371.52C1983.32,1371.52 1983.51,1389.8 1995.75,1403.17C2007.21,1415.7 2011.31,1400.14 2029.88,1411.6C2038.35,1416.84 2046.56,1434.69 2052.07,1447.73C2057.21,1459.91 2087.63,1459.18 2093.1,1468.17C2097.52,1475.46 2091.54,1534.7 2091.54,1534.7L2121.62,1550.15L2106.41,1578.53L2132.99,1588.5C2132.99,1588.5 2122.25,1601.78 2121.12,1620.36C2120.43,1631.84 2129.57,1643.31 2127.79,1654.15C2125.37,1668.86 2101.94,1686.26 2101.94,1686.26C2101.94,1686.26 2114.03,1712.64 2103.94,1728.12C2067.03,1784.78 1936.9,1887.16 1857.51,1891.52C1840.59,1892.45 1823.97,1892.09 1808.05,1890.44C1706.3,1879.93 1628.09,1817.96 1596.83,1714.4C1594.52,1706.74 1579.62,1703.32 1577.98,1695.15C1577.07,1690.59 1583.46,1689.14 1582.74,1684.41C1582.29,1681.41 1569.92,1677.69 1569.56,1674.62C1569.25,1672.06 1577.85,1672.07 1577.6,1669.46C1576.93,1662.43 1564.16,1661.14 1564,1653.73C1563.92,1649.59 1575.28,1645.66 1575.34,1641.41C1575.37,1639.62 1573.44,1637.45 1570.98,1635.16C1566.61,1631.11 1560.55,1626.69 1560.75,1623.4C1560.94,1620.15 1564.33,1615.54 1569.02,1604.56C1569.68,1603.03 1572.56,1595.51 1573.27,1591.58C1573.87,1588.24 1578.53,1589.48 1578.21,1586.67C1578.21,1586.67 1565.26,1576.75 1566.32,1574.76C1570.6,1566.76 1573.29,1575.58 1576.4,1568.7C1581.11,1558.3 1572.81,1559.69 1577.52,1556.26C1583.2,1552.12 1574.8,1545.42 1577.57,1539.61C1579.74,1535.06 1583.94,1536.69 1585.83,1532.35C1588.84,1525.45 1576.05,1519.36 1579.4,1513.58C1586.13,1501.94 1581.34,1504.11 1586.4,1493.18C1589.36,1486.82 1599.01,1481.68 1593.83,1477.81C1584.77,1471.02 1605.51,1467.87 1610.63,1463.62C1619.76,1456.04 1611.56,1445.39 1614.81,1440.55C1621.82,1430.09 1628.97,1440.55 1628.97,1440.55C1628.97,1440.55 1633.84,1433.43 1641.61,1423.27C1646.35,1417.07 1654.62,1415.26 1663.25,1412.74C1665.9,1411.97 1660.18,1397.31 1662.81,1396.26C1666.19,1394.9 1677.87,1407.02 1680.87,1404.64C1685.79,1400.74 1675.6,1382.93 1682.46,1382.88C1699.62,1382.75 1708.48,1368.47 1716.77,1365.5C1721.66,1363.76 1734.16,1375.92 1734.16,1375.92C1734.16,1375.92 1746.11,1359.73 1752.05,1359.28C1758.66,1358.77 1766.25,1355.45 1773.36,1355.27C1785.73,1354.97 1777.93,1343.98 1789.76,1344.52C1796.62,1344.84 1814.82,1359.51 1814.82,1359.51C1814.82,1359.51 1828.01,1344.23 1833.13,1344.76Z" style="fill:rgb(193,126,40);fill-rule:nonzero;"/>
                </g>
                <g id="path18" transform="matrix(1,0,0,1,-5.6051,-641.046)">
                    <path d="M1661.91,1593.89C1661.91,1567.72 1682.9,1546.51 1708.79,1546.51C1734.68,1546.51 1755.67,1567.72 1755.67,1593.89C1755.67,1620.06 1734.68,1641.27 1708.79,1641.27C1682.9,1641.27 1661.91,1620.06 1661.91,1593.89Z" style="fill:white;fill-rule:nonzero;"/>
                </g>
                <g id="path19" transform="matrix(1,0,0,1,-5.6051,-641.046)">
                    <path d="M1936.39,1594.29C1936.39,1569.5 1957.51,1549.41 1983.56,1549.41C2009.61,1549.41 2030.73,1569.5 2030.73,1594.29C2030.73,1619.08 2009.61,1639.17 1983.56,1639.17C1957.51,1639.17 1936.39,1619.08 1936.39,1594.29Z" style="fill:white;fill-rule:nonzero;"/>
                </g>
                <g id="path20" transform="matrix(1,0,0,1,-5.6051,-641.046)">
                    <path d="M1706.56,1593.25C1706.56,1579.65 1717.09,1568.63 1730.07,1568.63C1743.05,1568.63 1753.58,1579.65 1753.58,1593.25C1753.58,1606.85 1743.05,1617.87 1730.07,1617.87C1717.09,1617.87 1706.56,1606.85 1706.56,1593.25Z" style="fill-rule:nonzero;"/>
                </g>
                <g id="path21" transform="matrix(1,0,0,1,-5.6051,-641.046)">
                    <path d="M1951.2,1590.5C1951.2,1576.64 1961.85,1565.4 1974.99,1565.4C1988.13,1565.4 1998.78,1576.64 1998.78,1590.5C1998.78,1604.36 1988.13,1615.6 1974.99,1615.6C1961.85,1615.6 1951.2,1604.36 1951.2,1590.5Z" style="fill-rule:nonzero;"/>
                </g>
                <g id="path34" transform="matrix(1,0,0,1,-5.6051,-641.046)">
                    <path d="M1590.05,1799.3C1590.05,1785.25 1582.14,1778.56 1589.29,1766.74C1594.55,1758.03 1600.86,1744.29 1610.73,1740.38C1617.22,1737.82 1627.22,1745.98 1632.51,1739.83C1637.39,1734.17 1631.67,1701.75 1637.14,1696.22C1642.85,1690.44 1659.7,1698.2 1666.08,1692.95C1675.41,1685.28 1665.72,1666.85 1677.57,1664.57C1685.04,1663.13 1697.5,1664.52 1707.76,1657.2C1719.69,1648.7 1737.06,1642.4 1737.06,1642.4C1737.06,1642.4 1748.4,1629.48 1767.67,1626.65C1767.67,1626.65 1776.52,1636.2 1779.42,1635.79C1784.37,1635.1 1789.51,1634.4 1794.7,1633.75C1805.63,1632.36 1816.77,1631.13 1826.79,1630.36C1833.66,1629.83 1840,1629.51 1845.39,1629.51C1856.05,1629.51 1866.85,1630.11 1877.67,1631.55C1902.56,1634.86 1921.19,1625.65 1940.72,1644.19C1956.68,1659.33 1980.52,1666.57 1980.52,1666.57C1980.52,1666.57 2000.64,1662.69 2027.92,1680.89C2042.54,1690.64 2040.28,1693.59 2047.64,1713.14C2052.51,1726.09 2075.37,1714.71 2088.12,1726.65C2095.88,1733.9 2106.41,1742.16 2103.19,1761.88C2099.62,1783.7 2106.06,1829.96 2106.06,1835.26C2106.06,1842.31 2084.13,1827.23 2080.94,1844.28C2077.24,1864.1 2083.69,1885.48 2073.52,1888.52C2053.73,1894.44 2025.6,1905.67 2025.6,1905.67C2025.6,1905.67 2030.91,1920.95 2013.48,1939.26C1999.71,1953.7 1967.26,1947.53 1967.26,1947.53C1967.26,1947.53 1959.42,1952.2 1935.58,1968.97C1920.96,1979.25 1914.13,1952.42 1892.49,1949.28C1867.85,1945.72 1865.22,1959.55 1856.45,1959.55C1847.81,1959.55 1845.35,1978.28 1825.47,1974.93C1823.28,1974.56 1788.68,1964.21 1786.29,1956.68C1782.46,1944.58 1768.34,1962.16 1759.84,1958.83C1749.21,1954.65 1749.66,1939.17 1746.08,1939.49C1735.21,1940.43 1727.88,1948.68 1726.52,1948.44C1721.91,1947.63 1722.67,1927.62 1718.55,1925.47C1711.43,1921.75 1698.28,1948.38 1691.73,1944.89C1687.01,1942.38 1685.89,1923.6 1681.58,1921.32C1678.03,1919.44 1664.41,1920.79 1661.19,1919.12C1657.2,1917.05 1661.11,1892.68 1657.72,1891.02C1644.97,1884.76 1639.62,1897.77 1639.62,1897.77C1639.62,1897.77 1630.67,1883.23 1614.78,1881.78C1605.3,1880.92 1621.99,1861.08 1616.11,1851.97C1606.42,1836.93 1585.89,1834.89 1583.05,1819.09C1581.91,1812.78 1590.05,1805.75 1590.05,1799.3Z" style="fill:rgb(173,123,60);fill-rule:nonzero;"/>
                </g>
                <g id="path35" transform="matrix(1,0,0,1,-5.6051,-641.046)">
                    <path d="M1782.62,1787.47C1782.62,1760.41 1802.27,1725.96 1862.75,1727.13C1923.23,1728.3 1931.79,1755.53 1931.79,1782.59C1931.79,1809.66 1881.71,1827.96 1854.99,1827.96C1828.27,1827.96 1782.62,1814.54 1782.62,1787.47Z" style="fill-rule:nonzero;"/>
                </g>
            </g>
        </g>
    </g>
</svg>
