<?xml version="1.0" encoding="utf-8"?>
<!-- Generator: Adobe Illustrator 16.0.3, SVG Export Plug-In . SVG Version: 6.00 Build 0)  -->
<!DOCTYPE svg PUBLIC "-//W3C//DTD SVG 1.1//EN" "http://www.w3.org/Graphics/SVG/1.1/DTD/svg11.dtd">
<svg version="1.1" id="Layer_1" xmlns="http://www.w3.org/2000/svg" xmlns:xlink="http://www.w3.org/1999/xlink" x="0px" y="0px"
	 width="512px" height="512px" viewBox="0 0 512 512" style="enable-background:new 0 0 512 512;" xml:space="preserve">
<style type="text/css">
<![CDATA[
	.st0{fill:#14B6B9;}
	.st1{fill:#4B7BB2;}
	.st2{fill:#1E4384;}
	.st3{fill:#ED488B;}
	.st4{fill:#EF4754;}
	.st5{fill:#EF4823;}
	.st6{fill:#8A4581;}
	.st7{fill:#BCBCBC;}
	.st8{fill:#F26322;}
	.st9{fill:#F6851F;}
	.st10{fill:#283D5B;}
	.st11{fill:#C56528;}
	.st12{fill:#2B8C5E;}
	.st13{fill:#FCBF95;}
	.st14{fill:#FEBF10;}
	.st15{fill:none;}
	.st16{fill:#CAD7D6;}
	.st17{fill:#CBDB2D;}
	.st18{fill:#373837;}
	.st19{fill:#D03827;}
	.st20{fill:#3AB37C;}
	.st21{fill:#D6E5E5;}
	.st22{fill:#71C598;}
]]>
</style>
<g>
	<g>
		<g>
			<path class="st21" d="M144.793,151.865c0.409-4.219,1.755-7.918,3.786-11.115c-1.387,0.531-2.761,1.094-4.115,1.707
				c-9.301,4.215-17.235,10.471-22.065,19.618c-4.579,8.673-7.029,18.136-8.429,27.807c-0.891,6.156-1.446,12.335-1.808,18.528
				c3.502-2.469,7.8-3.875,11.954-4.75c6.366-1.343,13.083-1.938,18.281-6.293c3.731-3.126,5.424-7.588,5.786-12.352
				C149.033,173.796,143.713,163.007,144.793,151.865z"/>
		</g>
	</g>
	<g>
		<g>
			<path class="st20" d="M334.022,257.918c-2.297-3.158-5.639-8.242-9.625-9.461c-0.724-0.223-1.34-0.551-1.866-0.949
				c-0.169,0.018-0.346,0.025-0.526,0.028c-1.191,2.823-2.127,5.696-2.639,8.696c5.278,0.709,10.528,1.742,15.678,3.131
				C334.709,258.877,334.368,258.393,334.022,257.918z"/>
		</g>
	</g>
	<g>
		<g>
			<path class="st20" d="M438.911,129.342c-31.376-36.756-78.823-59.918-125.396-70.285c-46.823-10.424-97.573-9.271-142.098,9.859
				C98.025,100.455,38.211,175.394,35.494,256.155c0.229,0.829,0.231,1.745-0.071,2.711c-0.025,1.476-0.039,2.953-0.026,4.433
				c-0.236,1.104-0.426,2.208-0.59,3.314c0.107,0.951,0.209,1.877,0.233,2.725c0.12,4.209,0.096,8.415,0.392,12.618
				c0.547,7.759,2.777,15.515,1.984,23.251c0.295,2.107,0.566,4.211,0.786,6.307c0.028,0.258,0.098,0.483,0.188,0.694
				c0.623,4.37,1.313,8.737,2.01,13.115c1.448,9.102,3.334,18.13,5.771,27.021c4.772,17.414,11.205,34.481,19.931,50.316
				c16.625,30.168,40.698,56.532,71.945,71.821c21.484,10.512,44.656,15.112,68.463,15.931c26.034,0.896,52.27-1.531,77.555-7.902
				c49.926-12.578,96.576-38.939,130.271-78.271C476.781,331.353,506.528,208.555,438.911,129.342z M390.25,377.472
				c-12.004,21.515-37.513,21.351-59.172,22.678c-11.703,0.717-24.188,1.548-35.316-2.895
				c-10.991-4.387-18.403-13.624-23.101-24.239c-9.103-20.57-6.017-46.571,15.556-57.907c8.352-4.389,19.025-7.183,27.889-2.335
				c9.424,5.153,13.272,14.982,13.885,25.295c0.171,2.877-2.028,5.825-5.062,5.908c-4.254,0.115-8.322,1.387-11.699,4.047
				c-1.75,1.379-4.572,3.943-4.262,6.461c0.711,5.763,14.742,7.291,19.158,7.554c7.275,0.434,15.167-1.88,16.592-9.997
				c1.454-8.279,1.325-17.462,0.226-25.766c-1.227-9.27-4.095-16.828-13.542-20.049c-9.456-3.225-19.896-2.635-29.729-3.004
				c-10.47-0.393-20.135-2.771-28.888-8.729c-5.245-3.57-9.731-7.996-13.798-12.807c-0.121,1.581-0.242,3.162-0.364,4.744
				c-1.921,24.947-4.842,54.718-25.705,71.701c-15.93,12.969-39.411,16.247-59.358,15.453c-19.738-0.785-40.759-5.681-55.641-19.521
				c-18.697-17.388-21.492-41.53-20.019-65.85c0.978-16.134,2.295-32.177,2.564-48.35c0.257-15.446,0.13-30.927,1.948-46.294
				c2.946-24.902,11.58-48.656,35.513-60.145c12.247-5.879,25.653-8.471,38.941-10.824c13.02-2.307,26.283-6.158,39.582-6.119
				c13.198,0.039,26.455,3.413,36.174,12.855c5.802,5.637,10.611,12.744,11.549,20.318c5.114-2.826,10.541-5.084,16.223-6.412
				c12.712-2.97,25.663-2.553,38.626-2.069c13.854,0.517,27.711,1.858,40.946,6.199c10.798,3.542,21.049,9.782,26.887,19.866
				c5.62,9.709,7.652,20.686,7.137,31.826c-1.45,31.344,0.778,62.603-0.686,93.928c-0.707,15.121-0.12,29.686,1.458,44.715
				C396.139,350.824,396.918,365.52,390.25,377.472z"/>
		</g>
	</g>
	<g>
		<g>
			<path class="st21" d="M383.238,333.645c-1.747-15.22-1.367-30.227-0.625-45.502c0.761-15.664,0.036-31.12-0.238-46.777
				c-0.266-15.234,1.018-30.483,0.735-45.688c-0.194-10.47-2.658-21.659-10.706-29.023c-9.583-8.769-23.235-11.626-35.773-13.181
				c-13.259-1.643-27.359-2.417-40.706-1.496c-13.216,0.914-24.676,5.229-35.345,13.074c-1.795,1.32-3.629,1.328-5.126,0.588
				c-3.273-0.655-6-3.883-3.877-7.595c5.629-9.841-4.295-20.79-12.719-25.39c-9.661-5.275-20.394-5.935-31.152-4.535
				c-10.595,1.378-21.088,3.839-31.603,5.742c-1.071,0.193-2.146,0.392-3.22,0.592c-0.024,0.211-0.055,0.412-0.086,0.613
				c-2.002,0.754-3.909,1.789-5.677,3.033c-0.498,0.334-0.984,0.686-1.458,1.057c-0.474,0.358-0.932,0.736-1.371,1.139
				c-0.372,0.334-0.733,0.68-1.087,1.035c-2.541,1.476-4.75,3.435-6.014,6.177c-2.278,4.938-1.517,9.989-0.538,15.158
				c1.797,9.49,4.431,20.483,1.272,29.981c-3.627,10.907-12.172,17.576-23.288,20.089c-5.189,1.173-13.031,1.178-16.972,5.311
				c-3.79,3.974-3.915,11.323-4.76,16.495c-0.214,1.312-0.768,2.304-1.517,3.004c-0.1,8.075-0.223,16.148-0.667,24.2
				c-1.41,25.559-8.271,56.475,9.128,78.352c12.188,15.325,32.662,21.715,51.626,22.47c18.938,0.754,43.851-1.156,57.717-15.861
				c19.037-20.187,17.529-52.502,19.915-78.264c0.34-3.677,3.428-4.848,6.22-4.142c1.978-0.515,4.202-0.021,5.738,2.116
				c5.08,7.062,10.594,14.104,17.864,19.053c19.498,13.271,46.286,0.545,65.24,15.146c8.106,6.244,10.933,16.265,11.892,26.095
				c0.917,9.4,1.504,20.605-1.154,29.778c-5.698,19.669-32.698,19.931-47.717,11.302c-8.152-4.684-11.863-13.229-6.744-21.762
				c3.803-6.338,10.671-10.639,17.912-12.281c-1.107-5.397-3.72-10.768-9.464-12.026c-7.285-1.597-14.735,1.741-20.312,6.331
				c-13.842,11.393-11.73,32.016-3.059,45.947c5.163,8.295,11.929,13.561,21.768,15.014c8.99,1.328,18.035,0.395,27.056-0.074
				c14.479-0.752,36.975-0.095,45.233-14.894C386.564,361.521,384.807,347.313,383.238,333.645z M351.854,269.614
				c0.235,5.485-7.616,8.226-10.128,3.462c-9.336-3.677-19.378-5.638-29.329-6.619c-2.229-0.221-4.489-2.723-4.436-4.977
				c0.186-7.815,2.151-14.854,5.559-21.87c0.785-1.618,2.642-3.038,4.503-3.038h3c1.226,0,2.26,0.336,3.104,0.883
				c0.706-0.113,1.498-0.062,2.369,0.203c11.089,3.393,20.337,16.588,24.244,27.736C351.852,266.574,352.15,268.126,351.854,269.614
				z"/>
		</g>
	</g>
	<g>
		<g>
			<path d="M433.446,109.139c-34.394-32.934-81.58-53.168-127.896-61.935c-46.954-8.889-97.299-5.718-141.22,13.94
				C88.533,95.072,27.734,172.952,25.493,257.074c-1.866,6.193-0.425,13.607-0.311,19.881c0.078,4.421,0.468,8.848,0.969,13.238
				c0.049,0.434,0.107,0.865,0.168,1.295c-0.03,0.278-0.052,0.562-0.035,0.867c0.223,4.266,0.604,8.523,1.081,12.773
				c-0.014,0.08-0.022,0.158-0.038,0.239c-0.231,1.254-0.03,2.339,0.443,3.229c1.01,8.078,2.362,16.122,3.805,24.123
				c2.034,11.281,4.773,22.414,8.219,33.345c6.711,21.29,16.454,41.751,29.08,60.169c25.178,36.723,62.98,62.957,106.97,71.105
				c24.983,4.625,51.376,4.146,76.511,1.121c25.562-3.075,50.701-9.701,74.473-19.571c47.474-19.707,88.134-53.039,115.922-96.323
				c26.88-41.862,43.837-91.2,44.679-141.148C488.27,191.553,469.592,143.748,433.446,109.139z M414.337,404.238
				c-33.695,39.332-80.345,65.693-130.271,78.271c-25.285,6.371-51.521,8.799-77.555,7.902
				c-23.808-0.818-46.979-5.419-68.463-15.931c-31.247-15.289-55.32-41.653-71.945-71.821
				c-8.726-15.835-15.158-32.902-19.931-50.316c-2.437-8.891-4.323-17.919-5.771-27.021c-0.697-4.378-1.387-8.745-2.01-13.115
				c-0.09-0.211-0.159-0.437-0.188-0.694c-0.22-2.096-0.491-4.199-0.786-6.307c0.792-7.736-1.438-15.492-1.984-23.251
				c-0.296-4.203-0.271-8.409-0.392-12.618c-0.024-0.848-0.126-1.773-0.233-2.725c0.164-1.106,0.354-2.211,0.59-3.314
				c-0.013-1.479,0-2.957,0.026-4.433c0.302-0.966,0.299-1.882,0.071-2.711c2.717-80.762,62.531-155.7,135.924-187.239
				c44.524-19.131,95.274-20.283,142.098-9.859c46.572,10.367,94.02,33.529,125.396,70.285
				C506.528,208.555,476.781,331.353,414.337,404.238z"/>
		</g>
	</g>
	<g>
		<g>
			<path d="M394.762,337.711c-1.578-15.029-2.165-29.594-1.458-44.715c1.464-31.325-0.765-62.584,0.686-93.928
				c0.515-11.141-1.517-22.117-7.137-31.826c-5.838-10.084-16.089-16.324-26.887-19.866c-13.235-4.341-27.092-5.683-40.946-6.199
				c-12.963-0.483-25.914-0.9-38.626,2.069c-5.683,1.328-11.109,3.586-16.223,6.412c-0.938-7.574-5.748-14.682-11.549-20.318
				c-9.719-9.442-22.976-12.816-36.174-12.855c-13.299-0.039-26.562,3.812-39.582,6.119c-13.288,2.354-26.694,4.945-38.941,10.824
				c-23.933,11.488-32.566,35.242-35.513,60.145c-1.818,15.367-1.691,30.848-1.948,46.294c-0.269,16.173-1.587,32.216-2.564,48.35
				c-1.474,24.319,1.321,48.462,20.019,65.85c14.882,13.84,35.903,18.735,55.641,19.521c19.947,0.794,43.428-2.484,59.358-15.453
				c20.862-16.983,23.784-46.754,25.705-71.701c0.122-1.582,0.243-3.163,0.364-4.744c4.066,4.811,8.553,9.236,13.798,12.807
				c8.753,5.957,18.417,8.336,28.888,8.729c9.834,0.369,20.273-0.221,29.729,3.004c9.447,3.221,12.316,10.779,13.542,20.049
				c1.099,8.304,1.228,17.486-0.226,25.766c-1.425,8.117-9.316,10.431-16.592,9.997c-4.417-0.263-18.447-1.791-19.158-7.554
				c-0.311-2.518,2.511-5.082,4.262-6.461c3.377-2.66,7.444-3.932,11.699-4.047c3.034-0.083,5.233-3.031,5.062-5.908
				c-0.612-10.312-4.46-20.142-13.885-25.295c-8.863-4.848-19.537-2.054-27.889,2.335c-21.572,11.336-24.659,37.337-15.556,57.907
				c4.697,10.615,12.109,19.853,23.101,24.239c11.129,4.442,23.614,3.611,35.316,2.895c21.66-1.327,47.168-1.163,59.172-22.678
				C396.918,365.52,396.139,350.824,394.762,337.711z M113.97,189.882c1.4-9.671,3.85-19.134,8.429-27.807
				c4.83-9.147,12.764-15.403,22.065-19.618c1.354-0.613,2.729-1.176,4.115-1.707c-2.031,3.197-3.377,6.896-3.786,11.115
				c-1.08,11.142,4.24,21.931,3.389,33.15c-0.361,4.764-2.055,9.226-5.786,12.352c-5.197,4.355-11.915,4.95-18.281,6.293
				c-4.153,0.875-8.451,2.281-11.954,4.75C112.524,202.217,113.08,196.038,113.97,189.882z M379.578,374.044
				c-8.258,14.799-30.754,14.142-45.233,14.894c-9.021,0.469-18.065,1.402-27.056,0.074c-9.839-1.453-16.605-6.719-21.768-15.014
				c-8.671-13.932-10.783-34.555,3.059-45.947c5.578-4.59,13.028-7.928,20.312-6.331c5.745,1.259,8.357,6.629,9.464,12.026
				c-7.241,1.643-14.109,5.943-17.912,12.281c-5.119,8.532-1.408,17.078,6.744,21.762c15.019,8.629,42.019,8.367,47.717-11.302
				c2.658-9.173,2.071-20.378,1.154-29.778c-0.959-9.83-3.785-19.851-11.892-26.095c-18.954-14.601-45.742-1.874-65.24-15.146
				c-7.271-4.949-12.784-11.99-17.864-19.053c-1.536-2.137-3.761-2.631-5.738-2.116c-2.792-0.706-5.88,0.465-6.22,4.142
				c-2.385,25.762-0.877,58.077-19.915,78.264c-13.867,14.705-38.78,16.615-57.717,15.861c-18.965-0.755-39.438-7.145-51.626-22.47
				c-17.398-21.877-10.538-52.793-9.128-78.352c0.444-8.052,0.567-16.125,0.667-24.2c0.75-0.7,1.303-1.691,1.517-3.004
				c0.845-5.172,0.97-12.521,4.76-16.495c3.941-4.133,11.783-4.138,16.972-5.311c11.116-2.513,19.661-9.182,23.288-20.089
				c3.159-9.498,0.525-20.491-1.272-29.981c-0.979-5.169-1.74-10.22,0.538-15.158c1.265-2.742,3.473-4.701,6.014-6.177
				c0.354-0.355,0.716-0.701,1.087-1.035c0.439-0.402,0.897-0.78,1.371-1.139c0.475-0.371,0.961-0.723,1.458-1.057
				c1.768-1.244,3.675-2.279,5.677-3.033c0.032-0.201,0.062-0.402,0.086-0.613c1.074-0.2,2.148-0.398,3.22-0.592
				c10.515-1.903,21.008-4.364,31.603-5.742c10.758-1.399,21.491-0.74,31.152,4.535c8.424,4.6,18.348,15.549,12.719,25.39
				c-2.124,3.712,0.604,6.939,3.877,7.595c1.497,0.74,3.331,0.732,5.126-0.588c10.669-7.845,22.129-12.16,35.345-13.074
				c13.347-0.921,27.447-0.146,40.706,1.496c12.538,1.555,26.19,4.412,35.773,13.181c8.048,7.364,10.511,18.554,10.706,29.023
				c0.282,15.205-1.001,30.454-0.735,45.688c0.274,15.657,1,31.113,0.238,46.777c-0.742,15.275-1.122,30.282,0.625,45.502
				C384.807,347.313,386.564,361.521,379.578,374.044z"/>
		</g>
	</g>
	<g>
		<g>
			<path d="M350.741,265.395c-3.907-11.148-13.155-24.344-24.244-27.736c-0.872-0.266-1.663-0.316-2.369-0.203
				c-0.844-0.547-1.878-0.883-3.104-0.883h-3c-1.862,0-3.718,1.42-4.503,3.038c-3.407,7.017-5.373,14.055-5.559,21.87
				c-0.053,2.254,2.206,4.756,4.436,4.977c9.951,0.981,19.993,2.942,29.329,6.619c2.512,4.764,10.363,2.023,10.128-3.462
				C352.15,268.126,351.852,266.574,350.741,265.395z M319.367,256.232c0.512-3,1.448-5.873,2.639-8.696
				c0.18-0.003,0.356-0.011,0.526-0.028c0.525,0.398,1.142,0.727,1.866,0.949c3.986,1.219,7.328,6.303,9.625,9.461
				c0.346,0.475,0.687,0.959,1.023,1.445C329.896,257.975,324.646,256.941,319.367,256.232z"/>
		</g>
	</g>
</g>
</svg>
