<?xml version="1.0" encoding="UTF-8"?><svg xmlns="http://www.w3.org/2000/svg" data-name="ARTWORK" viewBox="0 0 1000 1000"><g fill="#edc851"><path d="M323.525 390.281c46.908-31.477 103.344-56.881 158.573-45.011 63.327 13.61 107.696 73.744 124.69 136.247 16.993 62.504 12.449 128.483 12.99 193.253.293 35.057 1.791 71.728-13.449 103.301-19.931 41.291-64.242 64.885-107.759 79.323-27.037 8.97-55.972 15.537-83.89 9.88-39.389-7.981-70.393-39.175-90.896-73.741-44.829-75.578-49.222-168.063-45.142-255.842 2.295-49.383 8.251-102.106 40.074-139.937"/><path d="M325.055 392.897c39.3-26.055 85.529-48.332 133.842-45.995 20.689 1.001 40.859 7.098 58.659 17.678 16.885 10.036 31.464 23.18 43.782 38.455 27.164 33.685 41.407 75.335 47.698 117.698 7.655 51.546 4.493 103.966 4.963 155.867.215 23.713 1.051 47.842-3.777 71.2-4.397 21.273-13.987 40.396-29.131 56.028-14.196 14.655-31.669 25.652-49.992 34.414-20.302 9.708-42.168 17.251-64.182 21.905-23.188 4.902-47.428 5.097-69.559-4.254-18.935-8-35.062-21.533-48.441-36.941-29.445-33.908-46.403-77.907-55.669-121.352-9.81-46-11.291-93.394-9.889-140.267.67-22.408 1.623-44.953 4.751-67.174 3.028-21.514 8.058-43.152 17.692-62.739 4.478-9.104 9.677-18.554 16.208-26.371 1.612-1.929 1.891-4.697 0-6.588-1.658-1.658-4.968-1.94-6.588 0-7.426 8.888-14.052 17.879-19.167 28.329-4.996 10.207-8.933 20.925-11.965 31.871-6.196 22.369-8.853 45.616-10.338 68.726-3.093 48.12-3.318 96.866 3.154 144.723 6.359 47.018 20 94.08 45.57 134.421 11.941 18.839 26.664 35.993 44.626 49.319 18.575 13.781 40.479 22.142 63.651 23.215 25.885 1.199 51.689-5.804 75.881-14.36 20.42-7.223 40.474-16.241 58.377-28.535 17.632-12.108 33.299-27.404 43.641-46.288 11.978-21.872 15.718-46.842 16.629-71.46.466-12.602.231-25.215.11-37.82-.128-13.368-.043-26.736.041-40.103.17-26.831.325-53.696-1.442-80.484-3.142-47.636-12.625-95.353-37.818-136.537-21.425-35.023-53.284-65.068-93.472-76.498-47.971-13.643-97.843 1.998-139.944 25.56-10.59 5.927-20.907 12.328-30.959 19.125-3.208 2.169-.211 7.4 3.058 5.232"/></g><g fill="#ff8345"><path d="M222.757 711.662c11.477-21.893 33.603-37.877 57.993-41.896 6.376 17.614 8.91 42.578 10.691 61.226.448 4.689 2.134 3.488-1.196 6.819-2.409 2.409-6.12 3.12-9.496 2.66s-6.516-1.938-9.595-3.396"/><path d="M224.782 712.846c2.295-4.055 5.316-7.556 8.343-11.08a82 82 0 0 1 10.217-9.959c2.055-1.685 2.862-2.351 5.001-3.862a83 83 0 0 1 6.004-3.864 87 87 0 0 1 6.147-3.265 99 99 0 0 1 3.256-1.481c.68-.297-.954.379.168-.068l.696-.281a79 79 0 0 1 1.751-.674c5.049-1.877 10.27-3.311 15.585-4.19l-5.557-3.155c4.122 11.531 6.203 23.773 7.827 35.873-.116-.867-.019-.135.003.033l.162 1.247q.147 1.14.286 2.279.29 2.359.556 4.721c.344 3.044.661 6.091.964 9.14.298 3.002.446 6.061.951 9.036.135.796.311 1.623.591 2.385.151.41-.042.99-.074-.712.012.651.287-1.39.1-.754-.025.084.573-1.27.28-.718-.262.495.896-.988.086-.125-.461.491-.934.966-1.413 1.44-.797.788.734-.326-.257.185-.201.104-1.627.774-.567.371-.713.271-1.439.445-2.185.597 1.125-.229-.067-.009-.291.003a14 14 0 0 1-2.289-.069c1.076.114-.456-.112-.673-.161a24 24 0 0 1-2.758-.816c-.419-.15-.833-.312-1.246-.477.731.293-.393-.173-.535-.237-1.198-.537-2.346-.966-3.616-1.28-2.092-.518-4.234.501-5.073 2.49-.891 2.111.015 4.071 1.76 5.37 3.292 2.453 7.709 3.824 11.765 4.301 3.501.412 7.353-.216 10.36-2.13 2.549-1.623 5.652-4.506 5.75-7.753.03-.987-.234-1.883-.495-2.81-.091-.325-.477-1.24-.348-1.543-.162.38.079.762.025.141-.043-.486-.094-.971-.141-1.456-1.301-13.401-2.723-26.836-5.28-40.066-1.368-7.077-3.059-14.12-5.514-20.905-.896-2.475-2.979-3.592-5.557-3.155-20.005 3.386-38.229 14.783-50.55 30.81-3.392 4.413-5.826 9.277-8.267 14.257-1.316 2.684 2.547 5.024 4.051 2.368Z"/></g><path d="M273.701 561.035c-1.141-25.364-1.354-51.058 4.31-75.809s17.726-48.744 37.504-64.665 47.952-22.51 71.452-12.897 39.468 37.135 32.411 61.525c17.043-23.389 34.674-47.34 59.111-62.842s57.596-20.819 82.085-5.399c26.145 16.463 34.746 50.294 37.691 81.05 9.856 102.928-18.612 205.241-46.799 304.724l139.333-11.143c-4.025-56.779 4.812-113.564 11.699-170.067s11.793-114.262.076-169.964c-11.718-55.702-42.333-109.826-91.896-137.819-91.007-51.399-210.394-23.083-277.425 54.252-48.621 56.095-65.553 136.522-59.55 209.055"/><path d="M275.981 561.035c-.502-11.682-.671-23.182.333-34.844.993-11.528 1.949-23.051 4.33-34.403 3.906-18.621 11.093-37.002 22.975-52.034 5.762-7.29 12.585-13.872 20.422-18.899 7.728-4.956 16.199-8.161 25.138-10.147 8.449-1.878 17.703-2.136 26.069-.315 8.112 1.767 15.883 5.416 21.779 10.527 3.404 2.95 6.619 6.399 8.852 9.6 2.536 3.634 4.84 7.93 6.108 11.398a52 52 0 0 1 2.295 8.395c.034.186.329 1.988.186.984.156 1.097.24 2.209.302 3.315.283 5.063-.106 8.331-1.397 12.921-.832 2.959.777 6.206 3.604 7.343 3.062 1.232 5.892.03 7.772-2.547 19.866-27.226 42.039-57.785 74.916-69.406 15.41-5.447 31.882-6.929 47.288-1.592 13.877 4.807 24.167 15.343 31.104 28.197 1.836 3.403 3.241 6.47 4.447 9.584a123 123 0 0 1 3.593 10.788c2.13 7.492 3.631 15.155 4.723 22.864a176 176 0 0 1 .581 4.67c.243 2.146.455 4.295.65 6.446q.681 7.519 1.098 15.057c.563 10.172.775 20.363.666 30.55-.433 40.764-5.972 81.314-14.059 121.218-8.182 40.374-18.956 80.164-30.053 119.817a10509 10509 0 0 1-4.095 14.586c-.998 3.548 1.879 8.01 5.854 7.684 36.204-2.964 72.427-5.721 108.64-8.572l30.692-2.417c3.175-.25 6.469-2.653 6.224-6.224-2.844-41.594 1.072-83.246 6.069-124.522 4.945-40.844 10.934-81.639 12.437-122.805 1.413-38.678-1.104-78.165-12.307-115.398-9.451-31.407-24.851-61.314-46.772-85.856-21.466-24.033-49.169-40.909-79.675-50.929-28.654-9.411-59.455-12.398-89.431-9.415-30.612 3.046-60.412 11.881-87.791 25.907-27.137 13.903-51.853 33.021-71.608 56.284-21.84 25.718-37.388 56.2-47.238 88.385-9.864 32.23-14.158 66.179-13.536 99.847.148 8.012.797 15.976 1.449 23.957.223 2.736 2.176 5.082 5.082 5.082 2.577 0 5.307-2.331 5.082-5.082-2.623-32.127-.249-65.248 6.733-96.696 7.036-31.697 19.158-62.31 37.501-89.203 16.903-24.782 39.226-45.61 64.246-61.378s51.955-26.406 81.104-31.969c13.956-2.663 28.094-3.976 42.869-3.861 14.943.116 28.457 1.588 42.741 4.752 29.107 6.449 57.019 19.002 79.331 38.783 23.217 20.584 40.434 47.596 51.544 76.217 13.119 33.793 18.066 69.95 18.498 106.048.482 40.192-4.362 80.184-9.39 119.987-5.115 40.497-10.466 81.136-10.434 122.03.008 9.953.344 19.903 1.047 29.832l6.224-6.224-108.64 8.822c-10.23.831-20.459 1.676-30.692 2.475l5.854 7.684c11.687-40.954 23.308-81.966 32.388-123.593 9.061-41.538 15.611-83.781 16.773-126.336.558-20.434.006-41.009-2.353-61.325-1.93-16.629-5.336-33.065-12.319-48.364-6.716-14.714-17.515-27.942-32.014-35.515-16.07-8.394-34.748-9.438-52.252-5.619-37.48 8.176-63.561 38.003-85.444 67.427-2.723 3.661-5.41 7.348-8.095 11.037l11.376 4.796c5.25-18.753-1.169-38.596-13.767-52.927-13.314-15.145-33.609-22.133-53.498-20.475-20.841 1.738-40.191 11.954-54.424 27.145-14.135 15.087-23.322 34.325-28.329 54.258-3.31 13.176-4.799 26.748-5.376 40.299-.293 6.873.396 13.835.739 20.706.352 7.052.371 14.129.696 21.186.135 2.922 4.687 2.941 4.561 0Z"/><g fill="#ff8345"><path d="M462.983 259.157a412.8 412.8 0 0 1 77.124-71.343c-25.172-9.487-47.825-25.572-65.078-46.21-8.019-9.592-14.568-24.826-5.546-33.481 6.689-6.418 17.495-4.456 26.452-2.067 69.662 18.583 140.332 37.582 202.32 74.4 20.446 12.144 41.5 28.846 44.63 52.419 2.534 19.083-7.468 37.346-17.123 54.001l-29.977 51.71c-4.227 7.291-9.092 15.128-17.05 17.9-7.851 2.735-16.421-.262-24.186-3.233l-151.128-57.826"/><path d="M465.172 261.346c8.916-10.329 18.331-20.21 28.258-29.573a413 413 0 0 1 15.247-13.682 345 345 0 0 1 15.429-12.462c3.035-2.312 6.09-4.607 9.205-6.81 1.494-1.057 3.061-1.953 4.652-2.857.864-.491 1.733-.972 2.597-1.463-1.389.789.832-.356.916-.402.568-.31 1.101-.774 1.638-1.139 2.015-1.369 3.177-3.449 2.843-5.934-.339-2.521-1.998-4.034-4.266-4.952-.714-.289-1.43-.575-2.138-.879.176.076 1.179.507.166.066q-.422-.182-.843-.366c-1.406-.615-2.804-1.248-4.205-1.874a157 157 0 0 1-22.607-12.418 159 159 0 0 1-7.172-5.03c-.493-.367-.982-.74-1.474-1.109-1.21-.907.712.563-.039-.027l-.907-.711a158 158 0 0 1-16.035-14.553 155 155 0 0 1-7.077-7.897 66 66 0 0 1-.63-.769c-.42-.523-.822-.473.089.127-.392-.258-.695-.934-.969-1.321a51 51 0 0 1-1.279-1.891 49 49 0 0 1-2.785-4.921 40 40 0 0 1-.702-1.512l.292.701c-.624-.929-.919-2.393-1.236-3.456q-.255-.86-.46-1.732c-.134-.572-.134-1.592-.405-2.105.053.101.16 1.549.078.49-.019-.251-.045-.502-.061-.753a20 20 0 0 1-.032-1.859c.015-.469.154-.996.105-1.457.143 1.333-.188 1.038-.025.381.086-.348.149-.7.243-1.046.125-.46.466-1.053.505-1.525-.08.978-.485 1.023-.182.48.147-.263.276-.535.426-.797.294-.509 1.353-1.642.184-.436.446-.46.831-.973 1.297-1.42.244-.234.507-.445.755-.673.625-.575-1.259.788-.132.122.448-.265.875-.56 1.337-.804l.345-.177q.711-.33-.028-.014l-.377.154q.359-.146.725-.274a17.6 17.6 0 0 1 2.642-.702c.159-.03 1.421-.332.362-.074-1.034.252.189-.003.381-.019q.404-.032.808-.05a32 32 0 0 1 4.132.095c.46.039 1.284-.053 1.678.177l-.788-.106q.316.045.63.095.525.082 1.05.175c1.324.234 2.639.515 3.947.825 2.815.667 5.601 1.454 8.395 2.202a5501 5501 0 0 1 18.331 4.933c12.232 3.32 24.447 6.706 36.608 10.277 24.185 7.1 48.196 14.869 71.665 24.085a593 593 0 0 1 8.888 3.572c1.397.575 2.805 1.133 4.187 1.742l-.115-.048.927.394q1.274.543 2.545 1.092a506 506 0 0 1 17.187 7.804c11.37 5.426 22.527 11.302 33.383 17.697 4.624 2.724 9.177 5.566 13.568 8.653q1.587 1.114 3.143 2.271c.566.421 1.193.827 1.718 1.299-.113-.102-1.159-.908-.282-.214q.506.4 1.011.802a108 108 0 0 1 6.15 5.31 87 87 0 0 1 5.468 5.569 74 74 0 0 1 2.431 2.857c.066.082.661.796.646.811-.005.005-.979-1.298-.255-.326.41.551.819 1.102 1.215 1.663a58 58 0 0 1 4.055 6.61c.564 1.08 1.019 2.216 1.578 3.295-.885-1.707.009.041.191.516q.4 1.044.752 2.107a46 46 0 0 1 1.752 7.187c.027.167.104 1.492.067.416-.04-1.156.038.452.05.575q.096.981.15 1.967c.089 1.628.092 3.261.015 4.889q-.053 1.095-.152 2.187c-.037.404-.085.807-.123 1.211-.051.543-.367.823.048-.286-.237.633-.23 1.504-.349 2.166a61 61 0 0 1-.536 2.635c-.672 2.97-1.557 5.89-2.591 8.753a112 112 0 0 1-1.631 4.193c-.391.96.647-1.451-.027.052-.137.306-.269.615-.406.921a122 122 0 0 1-1.051 2.293 168 168 0 0 1-4.368 8.576c-3.093 5.699-6.41 11.274-9.67 16.878-7.022 12.071-13.985 24.177-20.974 36.268-3.073 5.317-5.958 10.829-9.521 15.843-.281.396-.605 1.124-1.014 1.378.945-.588.578-.74.099-.157q-.335.408-.682.808a30 30 0 0 1-2.782 2.823c-.086.076-.801.628-.787.668-.019-.051 1.331-.95.344-.268-.451.311-.896.628-1.363.916-.588.363-1.198.663-1.805.989-.422.227-.959.209.418-.155-.421.111-.851.323-1.267.456q-1.077.342-2.187.553l-.245.047q-1.109.178.257-.026c-.19.094-.828.07-.99.079a26 26 0 0 1-3.489-.057c-.416-.035-1.909.02-.274-.005-1.435.022-3.131-.595-4.508-.967a68 68 0 0 1-4.703-1.475c-6.464-2.258-12.828-4.837-19.225-7.276l-39.099-14.905-39.099-14.905c-12.941-4.933-25.839-10.003-38.865-14.709-3.143-1.136-6.277-2.3-9.43-3.407-1.584-.556-3.178-.966-4.806-1.374l-2.425-.607c-.358-.089-.717-.19-1.078-.27l-.539-.135q-2.145.008-1.078-.27c-2.424-.928-5.537 1.024-6.091 3.459-.644 2.828.863 5.098 3.459 6.091-.589-.225.395.334.523.401l1.218.643 2.193 1.158c2.537 1.339 3.812 1.871 5.94 2.731l10.108 4.085c6.642 2.684 13.349 5.207 20.036 7.775l40.373 15.506 40.113 15.406 20.056 7.703c6.41 2.462 12.808 5.302 19.462 7.045 7.466 1.956 15.192 2.021 22.198-1.514 5.505-2.777 9.657-7.69 13.067-12.695 3.64-5.344 6.7-11.109 9.947-16.694l10.809-18.592c6.969-11.988 14.298-23.853 20.627-36.197 6.131-11.959 11.238-25.03 11.02-38.682-.187-11.773-4.464-23.118-11.492-32.498-7.079-9.447-15.991-17.078-25.675-23.761-10.046-6.933-20.833-12.847-31.66-18.456-11.89-6.16-24.062-11.74-36.402-16.935-23.908-10.066-48.486-18.449-73.305-25.959s-49.93-14.503-75.095-20.894c-5.525-1.403-11.426-2.571-17.143-1.96-6.849.731-12.876 3.709-16.787 9.532-6.754 10.057-1.944 23.654 4.098 32.775 3.364 5.078 7.536 9.664 11.758 14.038a157 157 0 0 0 12.847 11.901c9.465 7.837 19.711 14.706 30.679 20.259a142 142 0 0 0 16.904 7.233l-1.423-10.886c-.928.693-1.958 1.33-2.811 2.112l-.927 1.2q.587-.863-.097-.133c-.249.168-.513.473-.726.669a409 409 0 0 0-2.888 2.697c-.111.104-1.064 1.074-.491.539-1.379 1.288-3.017 2.387-4.488 3.573a400 400 0 0 0-4.048 3.309 455 455 0 0 0-15.609 13.566c-10.109 9.173-19.722 18.863-28.911 28.955a417 417 0 0 0-15.312 17.81c-1.053 1.296-1.268 3.109 0 4.377 1.117 1.117 3.28 1.271 4.377 0Z"/></g><g fill="#ff8345"><path d="M406.986 521.079c-26.534 21.592-59.854 33.567-93.59 39.234s-68.159 5.381-102.363 4.762c45.713 24.24 98.416 34.21 150.083 31.416s102.292-18.06 148.399-41.543c-13.75-1.107-27.454 1.839-41.152 3.468s-28.211 1.807-40.552-4.357-21.595-20.325-18.123-33.676l-4.101 1.89"/><path d="M405.65 519.743c-2.462 1.997-4.905 3.82-7.68 5.36-2.727 1.514-5.356 3.168-8.05 4.745a174 174 0 0 1-16.207 8.356c-11.206 5.067-22.987 8.911-34.878 12.011-26.182 6.827-52.524 8.758-79.653 9.239-16.056.285-32.098-.184-48.15-.472-5.923-.106-8.452 8.508-3.074 11.351 18.057 9.547 37.229 17.036 56.948 22.354s40.146 8.526 60.578 9.764 40.796.404 61.004-2.268a361 361 0 0 0 61.077-13.529c19.911-6.265 39.311-14.175 58.074-23.309a444 444 0 0 0 6.804-3.387c2.187-1.112 3.419-4.231 2.667-6.555-.832-2.572-2.939-4.057-5.597-4.261-9.455-.725-18.867.405-28.223 1.692-2.124.292-4.247.599-6.37.899-1.157.163-2.315.327-3.474.482 1.187-.159-.716.091-.77.098q-1.012.13-2.026.252c-4.063.487-8.144.847-12.235.961a85 85 0 0 1-11.924-.491c-1.699-.192 1.189.222-.492-.074-.506-.089-1.014-.164-1.52-.255a58 58 0 0 1-2.511-.514 49.5 49.5 0 0 1-6.128-1.815c-.401-.148-.798-.305-1.196-.46-1.569-.609 1.017.52-.498-.222-.856-.42-1.72-.816-2.557-1.275-1.527-.838-3.067-1.771-4.417-2.877 1.143.937-.011-.034-.2-.193a37 37 0 0 1-2.595-2.404 37 37 0 0 1-1.786-1.958c-.238-.28-.464-.569-.699-.852q-.396-.498.24.309a40 40 0 0 1-.517-.71c-1.085-1.533-2.122-3.135-3.017-4.788a31 31 0 0 1-.953-1.919q.401 1.004.046.14a30 30 0 0 1-.895-2.403q-.195-.605-.359-1.219c-.065-.242-.647-1.967-.293-.705-.174-.621-.202-1.487-.315-2.168-.191-1.152.017.722-.035-.362-.096-1.991-.092-3.941.114-5.927.331-3.182-3.835-5.275-6.355-3.647-1.215.785-2.499 1.853-3.779 2.442-1.758.81-2.195 3.348-1.286 4.903 1.055 1.804 3.139 2.099 4.903 1.286.362-.167 1.103-.223 1.547-.355l1.869-.557-5.195-5.195c-3.07 7.554-1.416 16.305 2.113 23.38 1.694 3.397 4.32 6.537 7.035 9.173 2.862 2.78 6.168 5.247 9.718 7.079 16.644 8.587 35.681 6.583 53.531 4.053l4.053-.577q.868-.123 1.737-.244c.201-.028 2.428-.329 1.351-.187 2.699-.356 5.402-.681 8.113-.929 5.405-.495 10.832-.669 16.249-.256l-2.93-10.816a432 432 0 0 1-13.667 6.66 351 351 0 0 1-10.421 4.65l-1.5.639c.224-.095.949-.397-.11.045l-1.002.418a398 398 0 0 1-28.5 10.605c-19.234 6.326-38.986 11.139-58.998 14.242a339 339 0 0 1-6.437.934c.59-.08.591-.078 0-.002a327 327 0 0 1-22.668 2.17 313 313 0 0 1-29.823.39 307 307 0 0 1-22.296-1.594 306 306 0 0 1-5.285-.621l-1.056-.135c-.622-.08-.539-.07.033.007-9.835-1.329-19.605-3.156-29.254-5.481s-19.149-5.148-28.482-8.486a269 269 0 0 1-12.866-4.979c-.522-.216-.552-.233-.013-.004a266 266 0 0 1-13.512-6.192 264 264 0 0 1-6.622-3.389l-3.074 11.351c14.489.264 28.998.245 43.484-.174a465 465 0 0 0 21.847-1.142c3.489-.266 6.974-.572 10.455-.926 3.906-.397 7.645-.843 11.005-1.293 26.028-3.485 51.609-9.845 75.221-21.563 6.345-3.149 12.513-6.656 18.435-10.545 3.001-1.971 5.996-3.969 8.685-6.351 2.656-2.352 5.402-4.522 8.157-6.757 1.89-1.532-.799-4.192-2.672-2.672Z"/></g><path d="M462.182 498.402q.12.078.235.162.276.199-.235-.187c.006.047.379.326.42.364.25.233.461.499.701.74.271.272-.408-.593-.104-.137.102.153.209.301.306.457.197.316.361.646.53.976.265.517-.2-.603-.086-.213.051.176.13.347.187.522q.159.489.27.991c.041.185.071.37.107.556.126.646-.075-.916-.032-.221.022.344.048.684.051 1.03s.002.693-.017 1.038c-.01.189-.03.377-.045.566-.05.643.161-.831.049-.373-.081.333-.128.673-.217 1.005-.057.211-.167.929-.35 1.065.157-.117.449-.982.106-.274a9 9 0 0 1-.212.41c-.164.3-.354.577-.539.863-.392.607.679-.773.189-.247-.126.136-.244.278-.373.411-.352.361-.572.65-.918 1.105l.419-.547q-.12.146-.245.287c-1.345 1.541-1.61 3.675-.318 5.347 1.177 1.523 3.55 2.175 5.253 1.049 4.017-2.656 5.393-8.058 4.61-12.61-.658-3.825-3.154-7.623-6.75-9.254-1.409-.639-3.256-.451-4.056 1.064-.793 1.501-.309 3.124 1.064 4.056Zm-84.886 0q.12.078.235.162.276.199-.235-.187c.006.047.379.326.42.364.25.233.461.499.701.74.271.272-.408-.593-.104-.137.102.153.209.301.306.457.197.316.361.646.53.976.265.517-.2-.603-.086-.213.051.176.13.347.187.522q.159.489.27.991c.041.185.071.37.107.556.126.646-.075-.916-.032-.221.022.344.048.684.051 1.03s.002.693-.017 1.038c-.01.189-.03.377-.045.566-.05.643.161-.831.049-.373-.081.333-.128.673-.217 1.005-.057.211-.167.929-.35 1.065.157-.117.449-.982.106-.274a9 9 0 0 1-.212.41c-.164.3-.354.577-.539.863-.392.607.679-.773.189-.247-.126.136-.244.278-.373.411-.352.361-.572.65-.918 1.105l.419-.547q-.12.146-.245.287c-1.345 1.541-1.61 3.675-.318 5.347 1.177 1.523 3.55 2.175 5.253 1.049 4.017-2.656 5.393-8.058 4.61-12.61-.658-3.825-3.154-7.623-6.75-9.254-1.409-.639-3.256-.451-4.056 1.064-.793 1.501-.309 3.124 1.064 4.056Zm-27.352-29.686c.947-3.491 2.256-6.124 4.44-9.136.089-.123.66-.866.325-.442q.414-.521.848-1.028a35 35 0 0 1 1.815-1.962 48 48 0 0 1 1.818-1.704c.333-.3.663-.602 1.004-.893q.219-.187.44-.372c-.016.013.877-.703.459-.378-.378.294.125-.091.167-.122q.308-.225.619-.447.469-.33.949-.645a33 33 0 0 1 2.331-1.396 37 37 0 0 1 2.637-1.291c-.704.314.196-.072.445-.166a34 34 0 0 1 1.576-.555c1.871-.61 3.771-.998 5.705-1.344-.868.155-.027.005.36-.035.485-.05.971-.089 1.457-.126a36 36 0 0 1 3.137-.105c1.889.021 3.754.246 5.628.465 1.159.135 2.347.223 3.491-.086 2.261-.61 3.624-2.836 3.321-5.087-.744-5.536-9.47-5.446-13.697-5.243-8.499.408-16.577 3.662-23.123 9.056-6.455 5.318-10.666 13.205-12.623 21.259-.428 1.76.559 3.637 2.344 4.128 1.749.48 3.651-.588 4.128-2.344Zm176.024-1.171c-3.028-7.082-7.653-13.491-13.484-18.532-6.273-5.423-13.744-9.18-21.912-10.741a62 62 0 0 0-6.763-.91c-2.171-.17-4.69-.413-6.816.133-2.695.692-4.569 2.97-4.931 5.66-.394 2.934 1.972 5.81 4.764 6.511 2.163.543 4.576.203 6.799.352.915.061 1.821.189 2.734.265.079.007-1.475-.219-.773-.101.241.041.483.073.725.113q.815.134 1.623.294c1.799.359 3.577.822 5.323 1.383s3.478 1.138 5.183 1.814c.951.377-.355-.13-.437-.187.173.122.494.216.675.298q.588.264 1.17.545c.886.426 1.774.849 2.655 1.283a50 50 0 0 1 5.399 3.091c.826.545 1.804 1.091 2.518 1.779-.769-.741.136.111.45.367q.64.524 1.263 1.07a48.5 48.5 0 0 1 4.404 4.364 45 45 0 0 1 1.396 1.663c.235.297-.188-.286.181.252.626.911 1.252 1.816 1.833 2.757.988 1.601 3.117 2.217 4.769 1.251 1.791-1.047 1.994-3.031 1.251-4.769Z"/><g fill="#edc851"><path d="M711.874 423.859c-103.517-65.836-226.198-101.136-348.875-100.387-4.013.025-8.692-.235-11-3.518-2.364-3.363-.894-7.967.648-11.778 9.532-23.559 20.129-48.48 41.096-62.842 21.305-14.593 49.113-15.257 74.779-12.406 57.225 6.356 116.172 24.905 167.804 50.274 40.779 20.036 95.843 53.606 96.03 104.674.055 14.958-8.744 28.322-17.208 40.655-3.738-1.333.226-6.097-3.512-7.43"/><path d="M713.469 421.13c-13.354-8.483-26.841-16.844-40.536-24.762-13.604-7.865-27.557-15.033-41.796-21.679-28.624-13.359-58.776-24.389-89.379-33.228-30.702-8.867-62.003-15.215-93.68-19.382a639 639 0 0 0-46.958-4.427c-7.911-.452-15.811-.7-23.735-.721-3.904-.011-7.806.019-11.709.108-1.782.041-3.576.156-5.357.064-.499-.026-2.333-.407-1.008-.058-.339-.089-.693-.133-1.033-.221-.385-.1-1.579-.712-.43-.054-.262-.15-.591-.36-.874-.488.881.4.42.422.105.037-.781-.954-.063-.134.003-.006-.834-1.626.34.665-.095-.33-.329-.752-.107.814.001-.015.061-.467-.002-.969.047-1.443-.033.312-.234 1.053.066-.113.126-.491.241-.983.385-1.47.983-3.322 2.451-6.534 3.752-9.741a552 552 0 0 1 2.048-4.972c-.24.575-.676 1.516.465-1.103-.106.244-.395.908.098-.204.406-.914.807-1.829 1.218-2.741a217 217 0 0 1 4.653-9.724c3.141-6.138 6.639-12.111 10.723-17.674.113-.154 1.464-1.935.811-1.096a81 81 0 0 1 1.644-2.041 84 84 0 0 1 3.66-4.132 77.5 77.5 0 0 1 7.483-6.895c.771-.624-.639.476.153-.125q.468-.355.942-.701a67 67 0 0 1 6.963-4.452 71 71 0 0 1 6.067-2.998c-.246.108-.907.364.238-.1a79 79 0 0 1 2.866-1.101 85 85 0 0 1 10.353-2.997 98 98 0 0 1 5.178-1.013q1.23-.206 2.464-.384c1.258-.184.504-.067.23-.033q.932-.118 1.865-.221c7.43-.808 14.935-.885 22.395-.533 3.681.174 7.357.456 11.025.822 1.812.181 3.622.384 5.43.599a452 452 0 0 1 5.438.681c32.376 4.362 64.209 12.451 95.094 23.023a548 548 0 0 1 23.232 8.545 471 471 0 0 1 21.699 9.122c12.128 5.433 24.098 11.266 35.73 17.699 10.634 5.881 20.997 12.297 30.75 19.556.63.469 1.254.945 1.882 1.417.228.171.987.76-.087-.072q.414.32.825.643 1.85 1.449 3.663 2.944a166 166 0 0 1 7.042 6.142c4.372 4.041 8.516 8.336 12.308 12.928.48.581.951 1.17 1.422 1.758 1.023 1.275-.474-.658.503.647a114 114 0 0 1 2.765 3.836 93 93 0 0 1 4.549 7.329c1.389 2.495 2.627 5.058 3.773 7.672-.699-1.595.2.528.348.911q.353.909.681 1.828a73 73 0 0 1 1.425 4.414 71 71 0 0 1 1.878 8.405c.052.327.093.657.15.983.182 1.03-.177-1.657-.005-.018.07.666.15 1.33.21 1.997a70 70 0 0 1 .265 4.562c.046 1.814-.045 3.599-.158 5.408-.013.203-.142 1.302.006.157-.054.421-.129.844-.202 1.262a45 45 0 0 1-.664 3.121 51 51 0 0 1-1.604 5.2 58 58 0 0 1-.455 1.205c-.054.137-.553 1.373-.277.71.338-.812-.508 1.137-.445.996q-.337.74-.69 1.473c-3.288 6.831-7.569 13.076-11.794 19.346l7.426-3.022c1.338.538 2.483 1.415 2.874 2.831.454 1.645.073 1.056.097.342a16 16 0 0 0-.057-2.153c-.333-3.188-1.839-6.295-4.951-7.622-3.063-1.307-6.988-1.018-8.736 2.291-1.448 2.741-.99 7.337 2.291 8.736q.989.486-.271-.364l-1.135-1.982c.432 1.031.094-1.452-.058-.36-.104.747-.092 1.592-.056 2.341.157 3.295 1.817 6.55 4.936 7.959 3.447 1.557 6.782.814 8.997-2.359 9.307-13.333 18.406-28.165 18.1-45.003-.232-12.754-3.748-25.166-9.713-36.404-11.985-22.578-32.8-39.579-53.977-53.149-23.837-15.275-49.885-27.284-76.145-37.717-31.329-12.448-63.812-22.004-96.989-28.043-16.137-2.937-32.567-5.401-48.977-6.004-15.303-.563-31.225.663-45.678 6.038-14.768 5.492-26.771 14.966-36.282 27.439-8.742 11.465-14.782 24.64-20.403 37.836-1.527 3.585-3.101 7.166-4.502 10.802-1.493 3.874-2.421 8.407-1.066 12.458 1.509 4.51 5.208 7.617 9.739 8.854 3.784 1.032 7.861.868 11.746.949 16.159.337 32.338.923 48.459 2.113a640 640 0 0 1 37.037 3.821c-.743-.099.628.085.78.106q1.492.204 2.983.415 2.982.421 5.96.871c16.109 2.431 32.093 5.534 47.992 9.082a651 651 0 0 1 92.748 28.087c29.943 11.569 59.327 24.785 87.573 40.127 6.86 3.726 13.481 7.877 20.069 12.062 3.443 2.187 6.617-3.28 3.19-5.457Z"/></g><g fill="#edc851"><path d="M464.237 108.452c-14.342-7.349-26.464-18.966-34.415-32.983-3.236-5.705-5.784-12.824-2.755-18.642 3.423-6.575 12.835-8.065 19.496-4.812s10.987 9.879 14.206 16.556 5.725 13.808 10.268 19.666c-2.329-15.338.304-31.39 7.412-45.18 2.504-4.858 6.569-10.004 12.028-9.754 3.552.163 6.659 2.754 8.29 5.913 1.632 3.159 2.012 6.812 2.06 10.367.188 14.106-4.583 28.229-13.286 39.331 11.607-10.692 24.291-20.483 38.735-26.839 3.603-1.585 7.453-2.974 11.377-2.665s7.925 2.74 8.922 6.548c1.202 4.589-2.139 9.055-5.515 12.388-10.883 10.742-24.566 18.622-39.318 22.645 11.083-2.184 23.067.744 31.894 7.792 5.176 4.133 9.463 11.324 6.292 17.14-3.039 5.573-10.798 6.143-17.062 5.121a68.6 68.6 0 0 1-27.189-10.779c3.812 6.564 9.083 12.324 11.861 19.388s2.213 16.363-4.005 20.716c-7.016 4.912-17.42.54-21.908-6.755s-4.689-16.344-4.759-24.909c-2.544 8.354-3.08 17.419-7.243 25.096s-14.013 13.473-21.638 9.215c-6.471-3.614-7.906-12.811-5.115-19.677s8.654-11.928 14.313-16.715c-8.496 5.946-20.066 7.206-29.644 3.23-3.7-1.536-7.189-3.893-9.312-7.291s-2.655-7.95-.657-11.423c1.736-3.018 5.008-4.786 8.221-6.125a62.3 62.3 0 0 1 27.987-4.633"/><path d="M465.948 105.526c-7.632-4.241-13.784-9.049-19.739-15.465a85 85 0 0 1-4.796-5.643c.045.058.4.536.099.122-.312-.428-.637-.848-.949-1.277-.665-.913-1.299-1.844-1.942-2.772a79 79 0 0 1-3.416-5.393 70 70 0 0 1-1.567-2.835 45 45 0 0 1-1.027-2.116c-.172-.38-.349-.864-.094-.203-.412-1.069-.801-2.142-1.102-3.248a23 23 0 0 1-.387-1.649c-.043-.222-.172-.624-.145-.827-.049.364.072.755.033.12-.033-.545-.069-1.088-.06-1.635.004-.271.027-.54.034-.811.029-1.163-.008.203-.047.173-.109-.082.317-1.435.356-1.57.038-.128.188-.738.258-.77l-.215.495a8 8 0 0 1 .275-.557c.106-.204.23-.398.337-.6l.083-.137q.37-.543-.053.017l-.226.284.83-1.075c-.881 1.141-.457.558-.246.342.29-.297.561-.605.868-.885.057-.052.422-.303.468-.405-.137.297-.989.679-.206.186.352-.222.697-.446 1.064-.644.163-.088 1.509-.724.64-.334-.798.358.309-.089.553-.166q.765-.24 1.55-.399c.153-.031.327-.042.476-.089.666-.207-1.16.098-.46.054.434-.027.863-.081 1.298-.097.902-.033 1.896.209 2.777.12-.114.012-1.338-.244-.454-.044.212.048.429.082.642.129q.558.123 1.107.284c.416.122.818.292 1.233.414.663.195-.996-.497-.389-.169.255.138.527.248.785.382.919.474 1.78 1.031 2.631 1.615.791.543-.76-.648.274.216q.665.556 1.29 1.155a30 30 0 0 1 2.116 2.263c.168.199.33.401.495.602.512.624-.182-.005-.129-.171-.051.162.811 1.124.915 1.275 5.858 8.524 8.16 18.983 14.467 27.238 1.696 2.22 4.16 3.431 6.918 2.267 2.736-1.154 3.619-3.753 3.208-6.536-.041-.279-.118-.591-.126-.869 0 .037.124 1.037.056.385-.053-.509-.12-1.017-.172-1.527a74 74 0 0 1-.35-9.424q.081-3.074.414-6.131c.055-.508.094-1.023.181-1.526-.172.988-.035.272.047-.261q.25-1.627.569-3.243a74.7 74.7 0 0 1 3.917-13.241c.106-.265.205-.555.331-.813-.021.043-.394.905-.135.322.446-1.003.891-2.005 1.372-2.992.789-1.624 1.632-3.22 2.642-4.719.146-.217.938-1.273.429-.636s.324-.383.493-.575a20 20 0 0 1 1.794-1.767c.717-.632-.925.623.13-.062.337-.219.687-.405 1.038-.599.848-.468-1.107.361.073-.007.257-.08 1.713-.381.748-.218-.957.162.413.04.647.041 1.017.002-1.014-.282-.047.002.187.055 1.528.523.703.175-.743-.313-.152-.062-.01.02.265.153.531.294.788.459.127.082.312.266.455.309-.711-.213-.699-.598-.272-.185.312.302.627.593.918.917.097.108.24.353.364.422-.037-.021-.614-.899-.317-.394.25.426.54.823.773 1.261.129.242.24.493.364.738.297.585-.148-.354-.157-.363.272.282.352 1.024.46 1.41a20 20 0 0 1 .533 2.497q.098.64-.06-.436c-.085.034.183 2.507.191 2.781q.05 1.592.009 3.185a67 67 0 0 1-.428 5.906c-.063.561-.325.509.037-.246-.075.157-.066.454-.092.628q-.111.732-.239 1.461a63.6 63.6 0 0 1-3.594 12.591l-.24.588c-.264.661.442-.989-.006 0-.232.514-.461 1.029-.702 1.539a62.6 62.6 0 0 1-5.918 9.997c-.242.333-1.395 1.83-.507.695-.979 1.252-1.681 2.398-1.681 4.057 0 1.407.625 3.088 1.681 4.057 2.374 2.179 5.746 2.168 8.114 0a228 228 0 0 1 9.617-8.348 177 177 0 0 1 2.398-1.926c.242-.191 1.613-1.414.564-.446.422-.39.939-.717 1.398-1.061a147 147 0 0 1 5.164-3.707 121 121 0 0 1 10.81-6.632 104 104 0 0 1 7.06-3.488c.269-.12.541-.235.81-.357.605-.274-.297.119-.34.14 1.018-.49 2.142-.846 3.219-1.182 1.018-.317 2.043-.53 3.085-.746.828-.172-1.052.044-.209.039.223-.001.45-.036.673-.046.606-.026 1.201.01 1.805.03.991.034-.426-.005-.512-.076.083.069.626.127.688.142.344.082.676.195 1.016.291.921.26-.307-.102-.409-.207.104.107.527.248.634.303.365.189.814.612 1.195.72.003 0-.932-.8-.496-.388.166.157.346.299.51.459.123.119.237.246.359.366.369.364.194.611-.271-.393.135.291.368.586.536.862.501.821-.215-.34-.172-.465-.048.141.199.719.251.854.246.642-.157-.572-.044-.574.021 0 .037.842.037.78 0 .193-.026.389-.025.581.007.783.281-1.152.044-.404-.138.435-.234.885-.374 1.321-.047.147-.278.811-.005.041.305-.863-.134.21-.234.393q-.348.634-.749 1.237c-.115.174-.237.344-.353.517-.634.944.061-.173.157-.179-.174.012-.848 1.009-.951 1.125q-.555.622-1.141 1.213a78 78 0 0 1-4.419 4.11 87 87 0 0 1-2.237 1.876c-.378.307-.762.606-1.141.91-.634.51.857-.644.205-.158l-.665.502a90 90 0 0 1-17.033 10.032c-.499.225-1.007.506-1.528.67.005-.002 1.092-.449.466-.198-.322.129-.643.264-.965.393a90 90 0 0 1-3.118 1.181 91 91 0 0 1-6.762 2.117c-3.032.825-5.193 4.309-4.196 7.39 1.07 3.308 4.074 4.82 7.39 4.196.397-.075.795-.137 1.192-.211 1.403-.26-1.421.135-.002-.006.802-.08 1.602-.161 2.408-.203a39 39 0 0 1 6.239.176c1.239.134-.143.153-.207-.041.049.147 2.129.364 2.382.416 1.712.352 3.4.816 5.052 1.388.699.242 1.386.513 2.075.784.827.326-1.385-.647-.158-.056.363.175.732.337 1.094.515a38.7 38.7 0 0 1 5.528 3.303l.326.237q.787.591-.275-.225c.218-.056 1.224 1.019 1.445 1.222a23 23 0 0 1 1.604 1.621c.088.098.643.877.747.875q-.842-1.114-.26-.331.225.309.438.626a19 19 0 0 1 1.155 1.949l.166.334q.413.896-.171-.458c.036.318.272.716.37 1.026.172.542.193 1.224.422 1.729l-.126-.946q.036.345.049.693c.016.446-.095.943-.046 1.379-.157-1.382.174-1.048-.03-.283l-.097.336q-.322.918.247-.484c-.202.229-.323.665-.484.935-.33.556-.898.85.242-.205-.373.345-.711.76-1.074 1.121-.827.824 1.277-.817.276-.214-.357.215-.699.443-1.069.635-.55.286-1.251.289.33-.102-.304.075-.607.227-.907.322-.625.199-1.263.355-1.907.477-.54.103-1.513.023.324-.018-.334.007-.677.073-1.011.097q-1.023.073-2.049.063c-1.026-.01-1.367-.038-2.049-.092-.338-.027-.674-.066-1.012-.097-1.275-.118 1.574.263.324.046-1.699-.295-3.39-.604-5.069-1.004a68 68 0 0 1-8.816-2.738c-.411-.158-.817-.325-1.227-.487-1.288-.508 1.023.467-.137-.06-3.751-1.704-7.352-3.634-10.777-5.93-2.191-1.468-5.759-.959-7.532.972-1.872 2.04-2.41 5.076-.972 7.532 3.47 5.928 8.073 11.181 11.002 17.427l.179.388q.412.934-.118-.308c.05-.003.362.934.396 1.028q.344.96.6 1.946.216.83.372 1.672c.094.51.066 1.595-.013-.297.019.455.099.912.128 1.368.079 1.258-.013 2.484-.091 3.737.137-2.187-.045.044-.194.639q-.12.479-.268.95c-.179.566-.887 1.685.057.035-.293.512-.508 1.065-.815 1.573-.139.229-.293.448-.435.674-.643 1.022 1.021-1.124.189-.246-.422.446-1.028.883-1.388 1.367.774-1.039.851-.614.197-.185-.367.241-.753.436-1.132.654-1.01.581 1.221-.382.462-.176-.253.069-.5.183-.752.26q-.455.14-.92.241c-.607.133-1.376-.016.409-.016-.636 0-1.268.095-1.909.075-.322-.01-.641-.042-.963-.063-1.197-.081 1.474.29.375.039-.644-.147-1.283-.281-1.914-.479-.318-.1-.628-.219-.944-.326-1.19-.402 1.383.674.255.111-1.227-.612-2.301-1.44-3.493-2.083 1.422.766.645.507.199.125q-.389-.333-.758-.685c-.494-.47-.938-.978-1.398-1.48-.851-.928.866 1.232.144.205-.129-.183-.26-.364-.384-.55a23 23 0 0 1-1.38-2.391c-.075-.148-.593-.983-.534-1.128q.531 1.289.151.345-.15-.387-.291-.777a32 32 0 0 1-.745-2.378 38 38 0 0 1-.652-2.851 43 43 0 0 1-.341-2.077q.19 1.449.062.405c-.381-3.817-.495-7.629-.526-11.463-.025-3.126-2.364-5.739-5.43-6.151-3.097-.416-5.966 1.473-6.872 4.486-2.014 6.701-2.76 13.742-5.143 20.338-.147.407-.308.809-.461 1.215-.53 1.408.601-1.263-.047.096-.312.655-.621 1.31-.969 1.947a21 21 0 0 1-1.105 1.802c-.305.445-1.054 1.04.135-.121-.335.328-.61.747-.925 1.098a23 23 0 0 1-2.058 2.014c-.44.378-1.257.67.151-.08-1.243.662-2.345 1.565-3.629 2.191-1.16.565 1.44-.501.223-.098-.325.107-.644.229-.972.329-.642.195-1.336.255-1.968.459 1.573-.508 1.028-.118.35-.075q-.412.026-.824.024c-.412-.002-.548-.023-.822-.028-1.096-.018 1.699.351.041-.004a11 11 0 0 1-.963-.251c-.652-.201-1.02-.689.239.16-.49-.33-1.099-.588-1.617-.886-.521-.299-.657-.802.369.322-.207-.227-.487-.414-.71-.629a11 11 0 0 1-.653-.682c-1.073-1.214.567.931.021.029a38 38 0 0 1-.947-1.644c-.221-.409-.237-.955.244.627-.093-.305-.233-.601-.335-.905a16 16 0 0 1-.505-1.883c-.066-.32-.097-.653-.171-.97.472 2.005.091.61.057.027a19 19 0 0 1 .036-2.662c.048-.579.401-1.439-.068.346.339-1.291.567-2.566 1.01-3.834.403-1.151-.664 1.333-.03.089.243-.476.467-.96.724-1.43.447-.818.939-1.612 1.466-2.381a33 33 0 0 1 .937-1.297q-.864 1.111-.237.326c.614-.716 1.217-1.436 1.86-2.125 2.502-2.68 5.297-5.065 8.092-7.432 2.383-2.018 2.261-5.955.491-8.245-1.787-2.313-5.513-3.403-8.101-1.617a31 31 0 0 1-4.42 2.554c-.138.065-1.343.573-.328.161s-.204.071-.344.124a31.7 31.7 0 0 1-5.293 1.49c-.258.049-.517.091-.775.138-1.4.254 1.526-.141.109-.006-.719.069-1.435.141-2.157.175a32 32 0 0 1-4.127-.068c-.261-.021-.522-.05-.783-.074-1.416-.131 1.511.258.109.018a37 37 0 0 1-2.313-.457c-1.282-.305-2.512-.725-3.754-1.159-1.009-.352.307.101.41.189-.247-.212-.765-.341-1.062-.485a25 25 0 0 1-2.057-1.114c-.33-.201-1.314-1.105-1.616-1.081.399-.032.982.827.355.263-.287-.259-.584-.504-.864-.771-.175-.167-1.122-1.392-1.314-1.406.38.028.815 1.135.17.19a13 13 0 0 1-.71-1.156c-.104-.191-.481-1.298-.187-.307.31 1.045-.052-.198-.1-.347-.162-.501-.193-1.464-.453-1.896.489.813.128 1.215.091.315-.013-.322.011-.644 0-.964-.046-1.341-.381 1.439-.044.143.095-.368.198-.741.284-1.111.288-1.244-.544.962-.129.254.159-.272.326-.562.469-.843.593-1.164-.977.975-.067.045.178-.182.34-.376.52-.556.092-.092.851-.676.848-.771.004.089-1.28.883-.35.278.656-.427 1.302-.848 1.993-1.219.576-.31 1.167-.585 1.759-.862 1.289-.603-1.47.573-.005-.006.282-.111.562-.227.844-.337a62 62 0 0 1 10.006-2.966q1.335-.276 2.68-.495c.374-.061.749-.113 1.123-.171q.719-.102-.538.072.451-.057.902-.106a63 63 0 0 1 10.886-.24c3.272.206 6.4-3.025 6.255-6.255-.16-3.566-2.75-6.034-6.255-6.255-7.63-.482-15.437.37-22.792 2.458-3.695 1.049-7.423 2.401-10.839 4.164-3.39 1.75-6.644 4.433-8.342 7.914-3.699 7.581-1.046 16.765 5.295 22.075 5.823 4.875 13.216 7.316 20.755 7.654 7.834.351 16.031-1.889 22.497-6.346l-7.61-9.863c-5.68 4.804-11.606 10.006-14.816 16.875-3.285 7.032-3.717 15.12-.096 22.137 1.638 3.174 4.492 6.127 7.753 7.636 4.019 1.86 8.135 2.298 12.472 1.383 7.236-1.525 13.805-7.173 17.187-13.633 4.308-8.227 5.033-17.446 7.661-26.212l-12.302-1.665c.068 7.784.25 15.943 3.271 23.235 1.587 3.831 3.67 7.424 6.812 10.205 2.891 2.559 6.206 4.531 9.916 5.65 3.54 1.068 7.519 1.23 11.097.237 4.104-1.14 7.411-3.721 9.898-7.113 4.288-5.848 4.584-14.255 2.601-21.004-2.524-8.592-8.713-15.215-13.156-22.787l-8.504 8.504a74.4 74.4 0 0 0 22.652 10.127c7.606 1.958 15.772 3.04 23.145-.304 3.872-1.756 6.63-5.096 8.08-9.034 1.581-4.297.555-8.956-1.263-12.974-3.226-7.13-10.423-12.26-17.43-15.248-8.787-3.747-18.184-4.826-27.579-2.999l3.194 11.586c8.909-2.481 17.539-6.263 25.366-11.194 4.067-2.562 7.944-5.457 11.6-8.576 3.574-3.049 7.162-6.352 9.671-10.365 2.944-4.709 3.888-11.142.579-15.95-3.101-4.507-8.148-6.995-13.58-7.154-5.519-.161-10.74 2.127-15.627 4.417-4.225 1.98-8.308 4.255-12.249 6.752-9.185 5.821-17.639 12.773-25.616 20.143l8.114 8.114c5.9-7.617 10.326-16.18 12.722-25.547 1.17-4.574 1.864-9.318 2.086-14.034s.125-9.852-1.609-14.313c-1.951-5.019-5.687-9.39-11.04-10.883-5.203-1.451-10.351.489-14.225 3.997-3.237 2.932-5.442 6.891-7.252 10.81-2.043 4.423-3.759 8.999-4.988 13.716-2.817 10.814-3.248 21.967-1.598 32.992l10.126-4.269c-6.083-7.932-8.529-17.855-13.991-26.15-5.353-8.131-13.827-15.161-24.15-14.218-4.72.431-9.468 2.103-12.742 5.685-4.059 4.439-4.985 10.412-3.864 16.169.987 5.068 3.642 9.78 6.443 14.055a83 83 0 0 0 9.152 11.562c3.725 3.931 7.835 7.423 12.18 10.647-.595-.442.534.4.801.591.27.193.543.38.815.571q.816.572 1.644 1.125a82.4 82.4 0 0 0 10.418 5.901c1.651.787 3.658.456 4.636-1.216.911-1.558.389-3.744-1.216-4.636Z"/></g><path d="M276.41 610.616c-.972 1.068-1.362 1.926-1.432 3.383-.074 1.553.167 3.139.299 4.689.238 2.803.497 5.597.816 8.392.667 5.841 1.255 11.697 2.035 17.524l4.624 34.554c3.128 23.372 6.445 46.718 9.695 70.073l2.682 19.279c.458 3.293.941 6.579 1.462 9.863.544 3.428 1.114 6.866 2.666 9.991 1.337 2.691 6.133 2.194 6.669-.872.28-1.602.407-3.056.294-4.672-.11-1.569-.209-3.13-.413-4.689-.398-3.05-.786-6.1-1.243-9.142l-2.625-17.499-5.176-34.504c-3.462-23.077-7.009-46.14-10.591-69.199-.993-6.391-2.117-12.757-3.234-19.127-.572-3.263-1.159-6.517-1.825-9.763-.329-1.605-.559-3.279-.994-4.859-.45-1.636-1.119-2.694-2.567-3.57-.344-.208-.868-.157-1.145.148Z"/><g fill="#ff8345"><path d="M247.604 709.786c72.146 34.416 136.554 83.273 184.256 147.413 73.092-79.11 172.98-133.007 279.229-150.666 19.006-3.159 40.021-4.795 56.099 5.821 13.863 9.154 21.193 26.148 21.74 42.752s-4.899 32.88-12.169 47.818c-19.024 39.092-50.682 71.123-86.841 95.26s-76.799 40.809-118.099 54.389c-47.942 15.765-98.738 27.664-148.632 20.082-66.601-10.121-124.393-54.626-163.229-109.67-27.427-38.874-47.189-86.58-38.945-133.436 3.252-18.484 14.928-39.161 33.695-39.297 13.93-.101 24.382 24.623 28.332 37.981s-4.232 22.079-6.213 35.868"/><path d="M245.763 712.937c54.544 28.124 104.944 63.343 147.371 107.866 11.903 12.492 23.099 25.666 33.403 39.508 2.251 3.024 6.731 4.432 9.683 1.248 29.789-32.135 63.883-60.067 101.199-83.03s77.277-40.776 119.165-53.007c20.758-6.061 42.187-11.288 63.68-13.914 19.869-2.428 42.391-1.226 54.219 17.399 12.16 19.149 8.429 42.714.117 62.644-8.381 20.098-20.884 38.662-35.288 54.916-30.641 34.577-70.347 59.351-112.328 77.883-22.342 9.863-45.462 18.033-68.774 25.276-24.233 7.529-49.056 13.904-74.318 16.746-23.918 2.691-48.293 2.383-71.853-2.851-20.183-4.484-39.34-12.082-57.313-22.213-36.2-20.404-66.982-50.19-90.539-84.285-13.18-19.077-24.356-39.802-31.261-62-6.554-21.068-9.59-44.238-5.017-66.051 1.751-8.353 5.066-16.98 10.259-23.122 2.958-3.498 5.432-5.695 9.364-7.542 1.264-.594.647-.276.376-.169.554-.217 1.121-.4 1.691-.57 1.031-.307 2.098-.582 3.166-.725-.796.107 1.725-.06 1.945-.07.369-.017.739.022 1.107.043-1.532-.085.065.063.409.15.361.092.707.22 1.061.334-1.151-.369-.306-.151-.019.004a34 34 0 0 1 2.285 1.33c.238.154 1.248.969.391.266.327.268.647.55.96.834.814.741 1.584 1.53 2.319 2.35 2.253 2.512 4.574 6.18 6.506 9.745 2.105 3.883 3.605 7.202 5.108 11.124 1.376 3.592 3.065 7.511 3.282 11.376.259 4.616-1.174 8.836-2.525 13.184-1.564 5.035-2.67 9.989-3.476 15.187-.404 2.605.663 5.256 3.413 6.011 2.317.637 5.604-.79 6.011-3.413.865-5.576 3.566-10.679 5.493-15.922 1.815-4.937 3.223-10.163 3.001-15.473-.391-9.351-4.768-19.196-8.857-27.465-3.834-7.752-9.245-16.517-17.236-20.554-8.922-4.508-19.866-1.923-27.7 3.712-18.093 13.015-23.185 37.21-23.795 58.166-.727 24.954 5.569 49.508 15.36 72.298 9.472 22.047 22.534 42.331 37.365 61.133 13.744 17.426 29.349 33.425 46.649 47.341 35.439 28.505 77.482 48.073 123.06 52.303 53.413 4.957 106.918-10.187 156.76-27.889 47.371-16.825 93.624-38.763 131.923-71.843 17.451-15.072 33.054-32.387 45.739-51.668 13.624-20.708 25.646-45.055 26.244-70.29.537-22.64-10.256-46.685-31.841-56.155-21.975-9.64-47.164-4.429-69.747.113-45.317 9.113-89.301 24.838-130.335 46.093-41.016 21.245-79.144 48.234-112.756 79.925a485 485 0 0 0-23.367 23.614l9.683 1.248c-18.791-25.172-40.051-48.269-63.764-68.879-23.721-20.616-49.467-38.837-76.605-54.672-15.275-8.912-31.198-16.759-47.368-23.901-4.198-1.854-7.936 4.108-3.683 6.301Z"/></g><path fill="#ff8345" d="M360.045 341.271c-3.559 2.798-6.751 5.816-9.83 9.134-3.033 3.267-5.808 6.785-8.488 10.345-2.612 3.469-5.098 7.004-7.186 10.815-2.119 3.868-3.461 8.509-4.358 12.806-.202.967 1.043 1.92 1.797 1.046 1.357-1.573 2.644-3.189 3.954-4.801 1.41-1.736 2.92-3.443 4.182-5.291 2.441-3.576 4.683-7.28 7.154-10.836 4.876-7.016 10.437-13.541 15.861-20.131 1.809-2.198-.885-4.818-3.087-3.087ZM628.66 529.153l-.09-.709-.006-.045a2.25 2.25 0 0 0-.255-1.143 1.5 1.5 0 0 0-.163-.377 2.2 2.2 0 0 0-.76-.828c-.172-.133-.223-.191-.366-.266l-.081-.042-.041-.021a2 2 0 0 0-.318-.136 1.9 1.9 0 0 0-.982-.22l-.678.091q-.323.108-.623.264l-.041.021-.074.039-.074.039c-.43.229-.831.666-1.072 1.081-.343.592-.324.858-.409 1.527l-.092.724q-.024.633.264 1.18.186.57.633.986.416.448.986.633.547.288 1.18.264l.814-.109a3.06 3.06 0 0 0 1.351-.788l.479-.62q.415-.717.418-1.546Zm13.857-8.095c3.438 0 3.444-5.343 0-5.343s-3.444 5.343 0 5.343m-1.539 23.333c3.773 0 3.78-5.864 0-5.864s-3.78 5.864 0 5.864m16.92-12.338c3.731 0 3.738-5.799 0-5.799s-3.738 5.799 0 5.799m28.934 9.407c-1.877 18.279-4.209 36.498-6.611 54.715s-4.331 36.429-5.897 54.715l-1.299 15.171c-.22 2.57-.374 5.133-.488 7.71-.059 1.329-.14 2.649-.082 3.979.03.682.078 1.356.169 2.034.128.951.557 1.794.952 2.661 1.132 2.488 4.571 1.903 5.851 0 1.541-2.29 1.741-5.001 2.061-7.679.267-2.236.562-4.469.738-6.715l1.069-13.679c.713-9.117 1.458-18.225 1.947-27.357.489-9.119.987-18.23 1.278-27.357s.545-18.241.927-27.357c.432-10.287.907-20.562 1.535-30.839.085-1.398-2.011-1.353-2.15 0Zm-182.458-24.446c7.956-2.648 15.94-5.22 23.84-8.036 3.909-1.394 7.801-2.825 11.646-4.389a505 505 0 0 0 5.756-2.382c2.347-.988 4.628-1.81 6.618-3.436 1.256-1.026 1.351-3.182.581-4.499-.887-1.517-2.55-1.98-4.193-1.706-2.202.367-4.253 1.599-6.265 2.525a516 516 0 0 1-5.676 2.572c-3.714 1.656-7.41 3.353-11.13 4.995-7.444 3.286-14.944 6.417-22.613 9.141-1.376.489-2.296 1.845-1.889 3.326.372 1.354 1.935 2.352 3.326 1.889Zm21.285 15.321 10.636-3.023c3.594-1.021 7.32-1.771 10.56-3.679 1.628-.959 1.02-3.828-1.003-3.703-1.016.062-2.012.103-3.006.329-.933.212-1.837.534-2.744.831l-5.065 1.657-10.52 3.442c-2.613.855-1.54 4.909 1.143 4.147Zm17.165 13.251.352-.708.299-.708q.186-.591.053-1.182 0-.402-.202-.748a2.2 2.2 0 0 0-.613-.954l-.6-.464-.708-.299a2.24 2.24 0 0 0-1.182-.053 2.2 2.2 0 0 0-1.102.352l-.708.352a3.24 3.24 0 0 0-1.157 1.157 3.2 3.2 0 0 0-.44 1.628l.115.857q.23.82.829 1.423.438.472 1.038.667.577.303 1.243.278a3.22 3.22 0 0 0 2.785-1.597ZM321.321 503.8c4.736 1.06 9.313 2.68 13.739 4.669a123 123 0 0 1 6.457 3.111c2.35 1.225 4.594 2.868 7.153 3.596 2.998.852 5.269-3.042 3.043-5.227-1.9-1.866-4.507-2.901-6.909-3.991-2.431-1.103-4.897-2.126-7.42-3-4.81-1.668-9.765-2.884-14.729-3.994-3.145-.704-4.488 4.132-1.334 4.838Zm-5.684 19.869 9.362 3.087 4.508 1.486c1.732.571 3.379 1.218 5.213 1.338 2.468.16 3.17-3.32 1.217-4.492-1.551-.931-3.336-1.31-5.059-1.818l-4.548-1.34-9.446-2.783c-2.914-.859-4.099 3.584-1.247 4.524Zm-5.162 18.356c4.193 0 4.2-6.516 0-6.516s-4.2 6.516 0 6.516"/><path d="M263.011 720.656c8.67 3.433 17.06 7.25 25.214 11.778a229 229 0 0 1 5.502 3.125c2.189 1.296 4.195 2.885 6.395 4.129 3.958 2.239 7.849 4.607 11.697 7.03 7.801 4.911 15.637 9.729 23.183 15.037 7.755 5.454 14.533 10.508 21.61 16.333a331 331 0 0 1 39.548 38.488c6.054 6.971 11.255 13.491 16.485 20.677 5.591 7.683 11.798 15.967 14.437 24.803.625 2.093 1.034 4.028 1.149 5.714q.127 1.86.009 3.722c-.015.239-.164 1.577-.008.474a20 20 0 0 1-.457 2.219c-.236.912-.515 1.828-.884 2.696.381-.898-.13.202-.238.413a20 20 0 0 1-.685 1.227c-.289.474-.592.951-.932 1.39.562-.725-.033.007-.141.113-.389.383-.78.778-1.162 1.168-.849.865.407-.136-.55.438-.47.282-.951.548-1.42.83-1.29.776.728-.083-.598.273-.311.084-.643.166-.948.262-1.348.425.988.103-.432.057-.409-.013-.825-.003-1.235-.009-.915-.013 1.271.346-.221-.013-.48-.116-.961-.262-1.441-.369-1.344-.299.723.447-.505-.17-.727-.365-1.439-.742-2.114-1.197.943.636-1.352-1.652-.78-.777-.171-.262-.322-.529-.483-.798-.663-1.109.134.719-.191-.551-.356-1.392-.04.615-.1-.474a4.9 4.9 0 0 1 .171-1.715c1.156-4.29 4.193-8.416 6.517-12.162 2.392-3.857 5.081-7.549 7.826-11.161 5.467-7.192 11.56-13.895 18.301-19.913 14.18-12.661 27.577-23.451 42.998-34.128 15.395-10.659 31.386-20.46 47.411-30.134 18.4-11.109 36.844-22.163 55.667-32.546 18.984-10.472 38.415-19.95 58.253-28.69 4.738-2.087 9.423-4.182 14.06-6.484 5.028-2.495 1.468-10.218-3.74-8.872-11.243 2.905-21.996 7.571-32.53 12.41-10.347 4.754-20.534 9.852-30.595 15.185-19.943 10.57-39.385 22.051-58.734 33.664-17.017 10.214-34.006 20.473-50.341 31.76-8.354 5.772-16.533 11.799-24.469 18.133-7.587 6.055-15.1 12.573-21.688 19.712-6.438 6.978-12.707 14.175-18.651 21.578-6.161 7.673-12.231 15.822-17.053 24.418-2.705 4.824-4.019 10.282-1.636 15.492 1.935 4.232 5.96 7.256 10.38 8.504 10.528 2.972 19.521-4.394 23.218-13.779 4.062-10.311.845-21.83-4.074-31.222-4.656-8.89-10.927-17.05-17.04-24.976-11.945-15.488-25.168-29.94-39.633-43.111-14.453-13.159-30.025-25.103-46.619-35.438-8.312-5.177-16.885-9.653-25.723-13.859-4.476-2.13-9.38-3.661-14.022-5.435-4.517-1.726-9.084-3.311-13.607-5.022a327 327 0 0 0-13.139-4.645c-2.838-.937-3.88 3.342-1.212 4.398m92.52-388.685c1.531.153 3.035.249 4.51.709.624.195 1.237.498 1.861.669.785.216 1.7.151 2.513.224 2.966.266 5.926.58 8.889.872 6.006.592 12.057.827 18.082 1.139 11.855.614 23.701 1.317 35.535 2.264a543 543 0 0 1 26.843 2.819l1.177.154c.084.011 1.061.142.315.041-.812-.109.423.058.607.083l.88.121c1.565.217 3.129.443 4.693.665a552 552 0 0 1 35.038 6.125 554.7 554.7 0 0 1 100.129 30.966l1.094.457c.517.216.672.282.063.025a547 547 0 0 1 32.555 15.041 542 542 0 0 1 31.493 17.15c10.228 6.019 20.155 12.466 30.161 18.838 2.54 1.618 4.99 3.093 7.72 4.368 2.559 1.195 5.421.896 7.229-1.443 1.696-2.196 1.538-5.353-.438-7.358-4.456-4.521-9.855-8.012-15.123-11.525a533 533 0 0 0-15.216-9.778c-10.244-6.341-20.803-12.21-31.486-17.775-21.622-11.263-44.014-21.088-66.914-29.45a555 555 0 0 0-69.384-20.317c-23.813-5.316-47.963-9.05-72.277-11.095-12-1.009-24.052-1.604-36.098-1.55-12.542.056-23.911 1.092-36.357 3.318-1.423.255-2.486.701-3.81 1.244-1.456.597-2.994.862-4.526 1.204-1.072.239-.717 1.696.242 1.792Zm123.346-104.482c17.816 5.007 35.413 10.814 53.305 15.544s35.763 9.592 53.353 15.303c8.631 2.802 17.196 5.81 25.662 9.076a445 445 0 0 1 11.468 4.614c1.082.452-.97-.413.109.046q.785.333 1.57.67a400 400 0 0 1 8.583 3.804c14.894 6.816 29.444 14.578 43.31 23.303 6.941 4.368 13.753 8.932 20.267 13.918.624.478-.712-.558-.094-.071l.503.391q.585.457 1.169.918a252 252 0 0 1 7.221 5.925 578 578 0 0 0 9.49 7.906c1.754 1.43 3.777 2.514 5.64 3.8 2.994 2.067 7.088-2.044 5.037-5.037-1.268-1.849-2.414-3.865-3.878-5.562-1.339-1.551-2.815-2.996-4.225-4.481-2.859-3.01-6.151-5.666-9.335-8.324a261 261 0 0 0-7.099-5.717l-.67-.519c.087.067-1.715-1.346-.888-.688l-.114-.094q-.416-.326-.835-.651a313 313 0 0 0-10.85-8.085c-13.516-9.586-27.917-17.756-42.86-24.892-15.793-7.542-32.095-14.018-48.661-19.653-17.668-6.01-35.622-11.193-53.797-15.424a449 449 0 0 0-27.299-5.471c-9.268-1.559-18.61-2.69-27.891-4.169l-6.89-1.096c-1.302-.207-2.629.335-3.006 1.707-.352 1.283.431 2.647 1.707 3.006ZM457.875 114.02c-6.692 3.249-13.31 7.659-17.996 13.507-5.322 6.642-8.445 14.886-7.455 23.482.493 4.282 1.756 8.435 4.236 12.011 1.117 1.611 2.376 3.177 3.829 4.501 1.586 1.445 3.527 2.392 5.486 3.218 6.658 2.81 14.591 2.951 20.885-.835 3.415-2.054 6.18-5.039 7.586-8.783.635-1.692.886-3.611.857-5.413-.029-1.783-.172-3.686-.988-5.286-.369-.725-1.429-.337-1.457.395-.054 1.419.063 2.799-.313 4.185-.361 1.332-.942 2.533-1.659 3.707-1.4 2.291-3.147 4.615-5.361 6.179-2.265 1.6-4.769 2.405-7.547 2.384-3.018-.023-5.213-1.044-7.672-2.765-.566-.396.145.157-.367-.287-.271-.235-.545-.465-.809-.709a24 24 0 0 1-1.647-1.691c-.488-.548-1.037-1.035-1.541-1.569a22 22 0 0 1-.735-.819c-.119-.139-.231-.285-.352-.423.255.288.311.43.036.043a23 23 0 0 1-1.288-1.997q-.27-.477-.514-.968-.13-.267-.258-.535c-.165-.346-.19-.472-.028-.045-.602-1.589-1.102-3.22-1.432-4.889q-.057-.3-.112-.601c-.011-.057-.122-.726-.043-.213s-.018-.158-.024-.218q-.031-.306-.058-.612a27 27 0 0 1-.095-2.666c.011-.824.07-1.642.139-2.462s-.076.318.057-.498c.077-.477.167-.952.252-1.428.631-3.522 1.553-6.331 3.168-9.243 1.728-3.117 3.877-5.81 6.431-8.294 2.71-2.635 5.758-4.657 9.09-6.426 2.613-1.387.315-5.209-2.302-3.938Z"/><path d="M474.67 142.258c-.492 1.022-.928 2.077-1.244 3.167-.13.449-.234.905-.33 1.362-.107.511.007.389.042.245-.165.694-.432 1.18-.383 1.92a21.9 21.9 0 0 0 1.568 6.782c1.877 4.62 4.862 8.601 8.574 11.919 7.516 6.716 18.739 12.425 29.026 9.736 10.145-2.651 14.817-12.777 15.307-22.478.488-9.682-2.863-19.853-8.191-27.861-2.727-4.099-6.006-7.892-9.847-10.984-3.943-3.174-8.985-5.933-14.227-5.37-2.956.317-5.765 1.519-7.711 3.839-1.849 2.204-3.08 5.222-2.861 8.142.437 5.83 4.194 10.182 8.791 13.428 4.169 2.944 8.785 5.475 13.413 7.616 4.72 2.184 9.612 3.976 14.783 4.701 4.448.623 8.872.424 13.304-.227 4.219-.62 8.57-2.031 12.098-4.474 2.238-1.549 3.583-2.801 5.155-5.019 1.434-2.023 2.486-4.368 3.178-6.744 1.433-4.918 1.195-10.279-.173-15.187-2.776-9.962-10.275-17.492-18.91-22.743a65 65 0 0 0-6.329-3.371v8.225c6.724-3.589 12.829-8.56 17.628-14.488 5.106-6.306 9.985-14.049 10.152-22.419.087-4.391-1.521-8.835-4.711-11.908-2.674-2.576-6.235-4.203-9.87-4.85-7.5-1.334-15.39.077-22.475 2.687-4.27 1.573-8.306 3.561-12.033 6.178s-6.918 5.632-10.034 8.952l6.083 6.083c4.565-5.897 7.169-12.791 7.565-20.258.365-6.872-1.282-14.388-5.178-20.132-2.318-3.418-5.263-6.143-9.136-7.666-4.08-1.605-8.569-.799-12.391 1.092-3.404 1.684-6.296 4.414-8.699 7.316-2.379 2.874-4.462 5.938-6 9.344-3.473 7.69-4.664 15.72-3.98 24.105l7.709-2.088a53 53 0 0 0-2.748-4.661 47 47 0 0 0-1.566-2.21q-.284-.373-.57-.742l-.473-.61c.448.577-.667-.858-.577-.746-.162-.2-.335-.393-.502-.588-2.535-2.956-5.477-5.574-8.764-7.672-6.622-4.228-14.629-5.787-22.317-4.074-3.819.851-7.333 2.645-10.346 5.119-3.084 2.533-5.173 6.025-6.535 9.735-2.602 7.087-1.758 15.426 1.08 22.305 3.648 8.844 9.971 15.957 16.398 22.895l2.949-7.12c-4.782.051-9.611 1.567-13.498 4.374-2.007 1.449-3.773 3.066-5.287 5.025-.795 1.028-1.318 2.213-1.819 3.405a23 23 0 0 0-.68 1.765c-.074.224-.149.451-.209.679a3 3 0 0 0-.155.798q-.026.784-.108.244c-.621 1.684.695 3.641 2.321 4.088 1.856.51 3.464-.631 4.088-2.321-.146.396.484-.652.549-.753.258-.403.528-.803.821-1.181-.428.553.454-.503.541-.598.321-.352.643-.697.955-1.058a24 24 0 0 1 1.726-1.828c.351-.329.716-.639 1.084-.948-.675.566.478-.342.613-.434a20.5 20.5 0 0 1 2.486-1.449c.086-.042 1.171-.526.325-.175q.664-.274 1.348-.495c.915-.299 1.842-.502 2.785-.688q.729-.113-.039 0 .357-.04.715-.064c.479-.034.958-.043 1.438-.043 3.746.001 5.328-4.496 2.949-7.12-2.438-2.69-4.873-5.386-7.141-8.221-.141-.176-.691-.876-.59-.745.266.346-.263-.35-.313-.417l-.38-.511a64 64 0 0 1-1.586-2.254 49 49 0 0 1-2.809-4.715 44 44 0 0 1-1.098-2.285c-.203-.454-.015-.028.019.056a30 30 0 0 1-.235-.591 31 31 0 0 1-.457-1.249c-.527-1.55-.894-3.132-1.156-4.747-.142-.872.041.552-.035-.326-.033-.375-.07-.749-.094-1.125q-.078-1.219-.05-2.44c.028-1.221.103-1.614.165-2.423-.063.814-.021.149.051-.258q.112-.634.259-1.263.25-1.072.603-2.115.207-.605.448-1.198c-.351.869.041-.038.212-.373q.497-.974 1.101-1.885c.096-.145.735-1.023.377-.559-.361.469.022-.02.086-.093.162-.185.321-.373.486-.555a21 21 0 0 1 1.654-1.639c.138-.121.988-.757.476-.407-.5.342.495-.326.669-.438q.89-.573 1.837-1.044c.083-.041.934-.482.96-.447.019.026-1.106.413-.153.083.223-.077.444-.162.669-.237a22 22 0 0 1 3.105-.795c.176-.032.354-.055.53-.089.668-.13-.873.077-.192.026 1.57-.118 3.11-.176 4.684-.08.361.022.719.07 1.079.097.572.044-.358-.037-.348-.051.02-.028.489.078.536.086a24.5 24.5 0 0 1 4.524 1.229c.179.068.357.142.536.209-.057-.021-.683-.312-.21-.087.403.193.812.371 1.212.572 1.657.831 3.19 1.837 4.691 2.918.408.294-.091-.068-.142-.111.197.163.399.321.595.484q.517.43 1.017.879a38 38 0 0 1 2.075 2.008c.623.65 1.223 1.324 1.808 2.009.293.343.569.7.858 1.047.31.372-.027-.039-.073-.1q.235.31.465.622a52 52 0 0 1 3.155 4.871c.878 1.526 2.951 2.458 4.672 1.901 1.591-.515 3.257-2.159 3.037-3.989a27.7 27.7 0 0 1-.153-4.543q.048-1.089.155-2.173c.011-.108.167-1.413.035-.432a40.4 40.4 0 0 1 2.263-8.788c.049-.129.581-1.427.361-.919-.275.635.251-.547.244-.532q.248-.538.51-1.069a42 42 0 0 1 1.113-2.093 48 48 0 0 1 2.543-4.009q.231-.321.465-.641c.772-1.071-.64.746.205-.267.507-.607 1.009-1.216 1.542-1.801a38 38 0 0 1 3.486-3.349c.212-.18.42-.36.636-.536-.869.707.214-.131.343-.218.686-.464 1.402-.852 2.135-1.234 1.103-.575-.574.114.145-.051.322-.074.637-.212.959-.295.228-.059 1.482-.205.289-.11.544-.043 1.071-.026 1.614-.024 1.141.006-.654-.21-.009.01.281.096.588.138.873.227l.341.114q.743.283-.139-.067c.262.014.734.379.956.512.26.155.503.343.763.496.607.357-.791-.739.064.05.645.594 1.275 1.182 1.848 1.849.008.01.753.978.344.411-.413-.573.297.443.3.447q.63.93 1.165 1.918c.302.556.572 1.126.846 1.696.543 1.132-.306-.877.132.302.176.474.358.945.519 1.424a30 30 0 0 1 1.044 4.028c.07.372.128.746.188 1.119-.15-.93-.033-.259-.017-.059.07.884.147 1.763.165 2.651a32 32 0 0 1-.115 3.412c-.017.198-.233 1.807-.064.712a33 33 0 0 1-1.097 4.804c-.227.724-.49 1.432-.758 2.142-.438 1.161.39-.762-.155.354-.222.454-.43.913-.663 1.362a29.6 29.6 0 0 1-2.633 4.157c-1.286 1.708-.419 4.369 1.108 5.549 1.632 1.261 4.18 1.241 5.648-.336 1.139-1.225 2.446-2.331 3.739-3.39l.646-.529c-.597.487.893-.694.778-.607-.144.109-.665.494.039-.019s1.413-1.021 2.138-1.505c2.795-1.865 5.781-3.449 8.84-4.836l.553-.247c.076-.034.698-.299.162-.073s.089-.034.166-.065q.375-.15.751-.296a53 53 0 0 1 7.326-2.231 50 50 0 0 1 2.373-.477c.397-.07.796-.132 1.194-.196.095-.015.769-.114.154-.027-.624.088.204-.023.324-.036a31 31 0 0 1 4.513-.188c.703.024 1.398.093 2.098.155.557.05-.413-.05-.427-.058.116.066.38.062.513.086q.594.105 1.181.244c.663.158 1.303.368 1.95.581.867.285-.737-.386.072.018.344.172.688.337 1.023.528.332.189.644.402.965.608.738.475-.586-.573.038.042.232.229.478.44.702.677.109.115.209.262.328.365.448.388-.466-.712-.148-.202.184.296.387.576.56.88.1.176.192.355.286.534.05.095.261.692.075.15-.181-.529.15.556.196.73.05.191.089.383.137.574.156.621.16.146.012-.123.292.529.087 1.802.052 2.391-.024.411-.157 1.185-.002.326-.085.474-.167.947-.275 1.417a24 24 0 0 1-.761 2.605c-.14.396-.297.785-.445 1.177.324-.855-.133.278-.266.56-1.415 2.985-3.202 5.822-5.177 8.467-.087.117-.602.781-.221.296.362-.461-.17.207-.234.287q-.434.539-.881 1.067a54.6 54.6 0 0 1-5.83 5.899 60 60 0 0 1-2.134 1.759c.047-.038.626-.464.186-.148-.267.192-.528.394-.795.588q-.561.406-1.131.797a55 55 0 0 1-4.891 2.982c-2.943 1.595-3.271 6.726 0 8.225 3.868 1.772 7.625 3.785 11.072 6.29.214.155.425.315.638.472-.142-.105-.68-.545.005.005q.542.433 1.072.88a39 39 0 0 1 2.469 2.271c.693.698 1.383 1.397 2.032 2.136.303.344.595.696.887 1.05.538.652.142.178.036.036q.357.476.697.962a28 28 0 0 1 2.198 3.721q.171.354.336.711c.522 1.114-.123-.403.116.265.334.933.681 1.852.948 2.807a28 28 0 0 1 .536 2.297c.017.089.189 1.095.116.627s.039.339.05.441q.04.39.068.78.05.681.062 1.364a29 29 0 0 1-.136 3.278c-.062.642.087-.494-.017.146q-.045.286-.098.571a20 20 0 0 1-.338 1.502c-.267 1.005-.6 1.952-.906 2.592-.83 1.732-1.723 3.138-2.734 4.344-1.137 1.356-2.439 2.579-3.901 3.578a20.23 20.23 0 0 1-10.538 3.537c-8.734.396-17.081-4.291-23.948-9.225-3.483-2.502-7.11-5.151-9.917-8.418-.301-.351-.05-.036.006.036a12 12 0 0 1-.465-.65c-.301-.446-.558-.912-.825-1.379.356.623-.177-.451-.243-.672-.032-.109-.248-1.348-.303-1.359.187.038.059.913.057.184 0-.231-.016-.461-.012-.692.009-.462.064-.92.102-1.38.062-.758-.117.204-.042.268-.032-.027.162-.688.154-.657.045-.161.111-.318.153-.479.133-.513-.501.783-.011.087.013-.019.273-.544.352-.566-.09.024-.659.642-.112.197.066-.054.503-.49.512-.473.063.131-.992.562-.13.158.116-.054.544-.245.595-.31-.085.11-.827.214-.375.191.189-.01.466-.093.642-.167.505-.214-1.003.03-.118.019.175-.002 1.265.115 1.372.029-.076.062-1.168-.239-.231-.022.234.054.469.097.703.155q.622.157 1.228.369c.149.052.905.316.295.092-.652-.24.326.155.455.218.845.413 1.658.889 2.436 1.415.204.138.399.289.605.424.576.379-.646-.543-.096-.078.451.382.913.75 1.358 1.139a44.4 44.4 0 0 1 5.309 5.53c.09.112.606.77.234.288s.134.184.22.3a46 46 0 0 1 4.798 8.125c.11.238.211.481.323.718.304.646-.28-.72-.021-.055.167.428.342.853.503 1.283a45.4 45.4 0 0 1 2.105 7.576q.072.387.136.775c.022.134.201 1.229.091.533-.095-.605.006.049.018.147q.046.392.087.783.073.71.117 1.422a32 32 0 0 1-.021 4.193c-.021.292-.239 1.141-.132 1.401-.036-.087.184-1.14.028-.221-.039.231-.074.462-.116.692q-.124.689-.283 1.369a24 24 0 0 1-.78 2.653c-.083.231-.564 1.262-.263.7.319-.595-.032.048-.105.206q-.175.383-.367.759c-.3.579-.822 1.946-1.395 2.264-.01.006.594-.688.228-.295-.15.16-.282.339-.428.503q-.493.556-1.039 1.06c-.163.149-.333.289-.497.436-.343.308-.154.387.147-.11-.163.268-.712.483-.987.648-.441.264-.896.486-1.357.713-.615.304.629-.16-.034-.003-.32.076-.64.217-.956.307-.516.146-1.041.228-1.56.352.066-.016.738-.069.203-.022-.268.023-.535.052-.803.069-1.154.074-2.304.028-3.455-.061-.154-.012-.849-.122-.068.002q-.31-.049-.617-.102a28 28 0 0 1-1.64-.342 33 33 0 0 1-3.427-1.029 40 40 0 0 1-1.373-.525c-.651-.262.473.213-.168-.071a40 40 0 0 1-3.53-1.762c-3.703-2.081-6.327-4.109-9.184-7.422-.291-.337-.571-.683-.859-1.021-.245-.288-.247-.297-.59-.78a25 25 0 0 1-1.67-2.687c-.8-1.499-1.339-2.915-1.686-4.813-.121-.659-.55-1.693-.76-2.716-.179-.872-.233-1.749-.244-2.637-.02-1.616-2.444-2.478-3.218-.871Z"/><path fill="#edc851" d="M565.648 185.802c24.794-5.486 50.341-7.713 75.699-8.217a414 414 0 0 1 16.269-.005c2.584.05 4.893.213 6.847-1.833 1.491-1.561 1.417-3.86 0-5.437-1.676-1.865-3.781-1.942-6.118-1.931a414 414 0 0 0-14.57.326c-6.478.258-12.948.658-19.403 1.268a427 427 0 0 0-38.97 5.492c-7.15 1.348-14.278 2.86-21.381 4.431-1.615.357-2.561 2.231-2.139 3.767.458 1.665 2.147 2.497 3.767 2.139Zm25.122 21.548a8554 8554 0 0 1 68.682-3.385l9.456-.431 4.977-.227c1.986-.091 3.948-.084 5.675-1.197 1.943-1.251 2.412-4.664 0-5.795-1.67-.783-3.117-.892-4.929-.735l-4.479.388-8.461.733-17.17 1.488c-11.445.992-22.889 1.979-34.341 2.879l-19.41 1.526c-1.281.101-2.378 1.021-2.378 2.378 0 1.234 1.089 2.447 2.378 2.378m35.219 22.472a360 360 0 0 1 25.706-.65c4.287.049 8.581.105 12.864.295 2.145.095 4.289.234 6.432.369 2.106.133 4.33.505 6.431.27 1.405-.157 3.242-.992 3.463-2.637.75-5.564-5.698-4.682-8.904-4.592q-3.216.09-6.432.216c-4.37.172-8.742.26-13.111.456-8.817.396-17.641.879-26.448 1.451-1.299.084-2.411 1.048-2.411 2.411 0 1.245 1.104 2.489 2.411 2.411Zm-123.935 645.15c13.819-19.674 28.179-40.374 49.486-52.577 5.001-2.864 10.259-5.265 15.795-6.888 5.797-1.7 10.854-2.549 16.771-2.607a52 52 0 0 1 4.334.12c.689.052 1.378.103 2.066.173.276.028.551.061.826.09q.779.098.095.005.41.057.818.121c2.577.401 5.119.995 7.596 1.815 1.127.373 2.264.769 3.349 1.252-.978-.436-.358-.152-.151-.055.323.15.649.292.971.444.645.304 1.29.613 1.916.954 2.205 1.201 4.362 2.458 6.402 3.93q.291.21.578.423c.264.196 1.228.691.1.07.482.265.959.772 1.377 1.128a48 48 0 0 1 5.284 5.248c.24.279 1.463 1.813.493.551l.846 1.095q.544.676-.192-.267c.238.135.476.632.629.843a42 42 0 0 1 3.78 6.264c.253.519.465 1.062.726 1.576-.765-1.501.059.176.217.603a37 37 0 0 1 1.137 3.627c.289 1.123.498 2.255.697 3.396.218 1.246-.135-1.379-.017-.12.027.289.061.578.087.867a34 34 0 0 1 .029 5.615c-.042.576-.107 1.148-.167 1.722-.085.815.247-1.529.043-.339-.067.391-.127.783-.201 1.174a37.6 37.6 0 0 1-1.947 6.771c-.147.376-.496 1.218.144-.319l-.591 1.401q.567-1.33.197-.48c-.235.505-.462 1.013-.709 1.513a43 43 0 0 1-1.774 3.233 47 47 0 0 1-1.853 2.827c-.324.458-.719.895-1.007 1.373.72-1.196.549-.699.29-.379-.288.356-.573.714-.866 1.066a60 60 0 0 1-5.029 5.309 70 70 0 0 1-4.028 3.497c-.233.188-.469.371-.702.559q-.522.41.484-.37l-.574.437a88 88 0 0 1-6.292 4.316c-4.345 2.717-8.905 5.086-13.592 7.155-.332.147-.666.289-.998.435-.918.403.317-.137.417-.173-.563.204-1.111.461-1.666.685a120 120 0 0 1-3.664 1.407c-2.264.829-4.573 1.533-6.955 1.93-.603.101-1.342-.108.213-.02-.271-.015-.577.06-.85.08q-.839.066-1.679.06c-.594-.005-1.203-.122-1.793-.109.08-.002 1.553.295.638.066-.354-.088-.712-.153-1.063-.256-.232-.068-.495-.209-.731-.24 1.211.156 1.035.516.446.174-.218-.127-.446-.235-.662-.368-.673-.415-.456-.727.217.22-.225-.317-.784-.907-1.099-1.111.172.111.797 1.269.32.362a9 9 0 0 1-.384-.667q-.42-.87.148.396c.013-.016-.233-.746-.221-.704l-.087-.357q-.181-.964.039.495c.174-.357-.024-1.438-.016-1.859.017-.86.244.259-.074.444.095-.055.204-1.01.237-1.144.193-.783.464-1.534.729-2.294.175-.502-.019-.66-.124.274.038-.336.382-.828.532-1.13q.467-.937.99-1.844c.756-1.316 1.593-2.579 2.455-3.827 7.115-10.299 14.254-20.586 21.707-30.644a604 604 0 0 1 5.651-7.49c.918-1.199-.725.932.201-.262l.548-.706q.686-.882 1.376-1.759a419 419 0 0 1 3.059-3.843c3.964-4.917 8.024-9.76 12.238-14.465 8.259-9.221 17.095-18.036 26.819-25.716 1.086-.857-.55.404.136-.105.287-.213.569-.432.856-.646q.858-.64 1.729-1.265a93 93 0 0 1 3.889-2.642 76 76 0 0 1 7.773-4.396q.954-.465 1.923-.899c.144-.065 1.449-.62.364-.169q.393-.163.789-.322a62 62 0 0 1 4.347-1.565 50.6 50.6 0 0 1 7.179-1.705c.393-.063 1.214-.172.351-.063a46.4 46.4 0 0 1 8.586-.301c.744.045 1.483.138 2.226.195.793.061-1.101-.187.184.021.334.054.668.105 1.001.164 1.46.258 2.906.598 4.326 1.025q.965.29 1.913.635c.316.115.628.238.942.358 1.229.467-.763-.388.426.184 1.316.633 2.611 1.282 3.849 2.061a28 28 0 0 1 2.052 1.422c-.803-.608.139.13.246.22a30 30 0 0 1 4.019 4.086c.507.605.108.128.01-.002q.325.43.636.871a30 30 0 0 1 2.057 3.357 29 29 0 0 1 1.085 2.24c-.36-.836.088.254.126.354.456 1.212.83 2.455 1.111 3.719.127.57.23 1.144.323 1.721-.127-.781-.003-.011.018.189q.046.435.076.872a27 27 0 0 1-.005 3.837q-.033.434-.082.867c-.073.658.176-.846-.041.252-.114.58-.22 1.158-.364 1.731q-.201.804-.47 1.588-.153.446-.329.881c.221-.547-.1.204-.167.343-1.847 3.841-4.632 6.66-8.52 8.592-3.47 1.725-7.81 2.451-11.562 1.54-8.503-2.064-11.792-10.769-11.644-18.726.174-9.364 3.953-18.181 8.83-26.183 11.248-18.455 27.686-33.599 46.866-43.525a114.5 114.5 0 0 1 14.214-6.168c1.491-.531 2.49-2 2.048-3.607-.397-1.443-2.108-2.582-3.607-2.048-22.004 7.838-41.696 22.014-56.074 40.432-6.772 8.675-13.074 18.285-15.996 29.006-2.5 9.172-3.073 20.4 2.976 28.381 2.969 3.916 7.3 6.873 12.166 7.819 4.999.971 10.051.096 14.635-2.039 4.557-2.122 8.63-5.536 11.282-9.826 2.899-4.69 3.972-10.494 3.277-15.932-1.518-11.877-9.429-22.088-20.407-26.808-11.996-5.158-25.966-4.475-37.962.362-12.595 5.079-23.311 13.511-33.262 22.604-9.751 8.91-18.75 18.642-27.13 28.846-8.633 10.512-16.742 21.448-24.654 32.51-3.863 5.401-7.837 10.761-11.501 16.299-4.117 6.223-7.106 13.878-3.884 21.128 2.72 6.121 9.536 8.81 15.892 8.461 5.717-.313 11.02-2.254 16.249-4.438 10.683-4.462 20.825-10.153 29.492-17.906 8.108-7.254 14.891-16.775 17.031-27.605 2.253-11.399-.152-23.143-6.834-32.682-3.47-4.953-7.719-9.077-12.633-12.588a49.5 49.5 0 0 0-6.737-4.047c-.321-.159-.642-.32-.965-.474-.35-.167-2.218-.92-1.243-.542l.253.113q-.744-.319-1.491-.631a48 48 0 0 0-4.856-1.75c-11.91-3.574-24.991-2.479-36.647 1.523-12.101 4.155-23.053 10.949-32.505 19.532-9.734 8.839-18.041 18.969-25.71 29.62-3.657 5.08-7.179 10.255-10.696 15.432-1.447 2.13 1.976 4.079 3.432 2.006Zm-242.732-65.405c8.062-3.824 16.022-8.004 23.684-12.578 7.789-4.65 15.125-9.944 22.182-15.64 4.033-3.255 8.362-6.523 11.23-10.892 2.073-3.159-1.982-6.927-5.081-5.081-3.924 2.337-7.134 5.778-10.545 8.79-3.29 2.906-6.672 5.7-10.124 8.41-2.911 2.286-6.778 5.161-10.139 7.566a219 219 0 0 1-10.967 7.358c-4.219 2.649-8.617 4.993-13.068 7.229-1.352.679-1.734 2.587-1.005 3.833.818 1.399 2.461 1.656 3.833 1.005m19.934 44.674c20.45-7.017 38.839-19.34 52.534-36.125a101 101 0 0 0 5.892-7.965c.792-1.191 1.6-2.384 2.267-3.65 1.276-2.422 1.886-4.706.62-7.304-.57-1.171-2.162-2.083-3.46-1.985-2.525.192-4.138 1.493-5.572 3.467-.768 1.057-1.446 2.169-2.157 3.263-1.385 2.13-2.861 4.194-4.346 6.254q-.513.711-1.037 1.415-.35.467-.704.934c-.146.194-.514.785.08-.1-.718 1.071-1.632 2.059-2.458 3.047a114 114 0 0 1-5.218 5.827c-3.51 3.658-7.271 7.09-11.186 10.31q-.751.618-1.513 1.223l-.611.482c-1.008.798.674-.501-.36.278a136 136 0 0 1-3.159 2.322 114 114 0 0 1-6.367 4.201c-4.801 2.941-10.137 5.609-15.047 7.571-1.698.679-2.89 2.263-2.366 4.168.463 1.684 2.429 2.963 4.168 2.366Zm36.781 27.09a4175 4175 0 0 1 18.618-16.562 849 849 0 0 0 9.286-8.304c3.191-2.905 6.682-5.649 9.304-9.089.859-1.127.722-3.099 0-4.242-.433-.685-.85-1.049-1.508-1.508-1.15-.801-3.09-.776-4.242 0-3.568 2.401-6.514 5.817-9.579 8.815a848 848 0 0 0-8.813 8.776 4108 4108 0 0 1-17.581 17.598c-2.935 2.922 1.469 7.24 4.515 4.515Zm44.107 22.467 4.396-5.861c.45-.6.501-1.697.312-2.385-.198-.718-.753-1.496-1.422-1.85-.718-.38-1.588-.57-2.385-.312l-.739.312a3.1 3.1 0 0 0-1.11 1.11l-4.396 5.861c-.45.6-.501 1.697-.312 2.385.198.718.753 1.496 1.422 1.85.718.38 1.588.57 2.385.312l.739-.312a3.1 3.1 0 0 0 1.11-1.11"/><path fill="#ff8345" d="M323.319 659.913c1.039 2.232 2.003 4.581 3.284 6.68 1.328 2.175 2.672 4.338 4.096 6.452 2.817 4.18 5.874 8.282 9.399 11.896 6.87 7.042 15.346 12.577 25.049 14.693 9.254 2.017 19.645 1.064 27.567-4.481 6.968-4.877 10.833-12.618 11.562-21.004.392-4.512-.439-9.012-2.249-13.143-1.829-4.174-5.038-7.412-8.881-9.782-1.737-1.071-4.073-.814-5.641.397-1.744 1.347-2.131 3.246-1.82 5.339.743 5.008 3.063 9.884 5.942 14.024a51.7 51.7 0 0 0 10.62 11.21c8.395 6.571 18.159 11.227 28.381 14.203 10.982 3.198 23.465 4.587 34.506.889 5.03-1.684 9.967-4.29 13.617-8.214 3.26-3.505 5.659-7.7 7.148-12.243 3.271-9.979 1.146-21.73-7.759-28.035-1.485-1.051-4.008-.639-5.211.672-1.311 1.428-1.64 3.491-.672 5.211 10.847 19.287 33.656 31.037 55.622 28.989 3.167-.295 6.329-.807 9.404-1.625 1.562-.415 3.027-.986 4.511-1.624a12.5 12.5 0 0 0 2.025-1.084c.602-.401 1.258-1.053 1.907-1.338 1.095-.482 1.35-2.083.795-3.031-.661-1.129-1.932-1.279-3.031-.795l-.307.135 1.118-.302c-1.408-.061-2.764.339-3.898.582q-1.955.417-3.901.872a51 51 0 0 1-4.577.861c.582-.081.019-.005-.084.007q-1.151.136-2.307.22a53.5 53.5 0 0 1-7.307.02 56 56 0 0 1-1.996-.166c-.333-.034-.664-.075-.997-.11-.151-.016-.743-.094.007.007-1.321-.177-2.628-.423-3.935-.684-2.517-.502-5.001-1.119-7.439-1.926a58 58 0 0 1-3.457-1.266q-.31-.125-.62-.253c.858.354-.171-.079-.286-.13a57 57 0 0 1-8.481-4.649 55 55 0 0 1-2.983-2.13c.753.576-.126-.107-.23-.191a52 52 0 0 1-2.275-1.94c-2.063-1.862-3.925-3.893-5.691-6.034-.709-.859.49.676-.173-.218q-.348-.466-.689-.937a48 48 0 0 1-1.222-1.785c-.794-1.218-1.413-2.526-2.079-3.816l-6.754 5.211c.684.577 1.342 1.172 1.941 1.838.159.177.302.389.474.553.442.424-.601-.882-.073-.091.265.396.538.784.781 1.195q.326.551.609 1.126c.056.113.207.604.302.644-.062-.026-.396-1.048-.13-.291.316.9.608 1.797.809 2.731.071.331.046.846.209 1.134-.376-.664-.087-.857-.036-.228.019.241.047.481.064.723q.096 1.395.021 2.791c-.024.448-.07.892-.108 1.338-.07.829.022-.296.058-.381-.061.146-.065.424-.093.593a27 27 0 0 1-.655 2.958c-.249.889-.562 1.751-.877 2.617-.286.789.082-.243.146-.321-.142.175-.217.494-.314.703a28 28 0 0 1-2.194 3.897c-.231.342-.475.673-.715 1.008-.616.862.61-.673.128-.17-.211.22-.392.476-.592.706a27 27 0 0 1-2.947 2.894c-.12.1-.369.253-.473.385.749-.952.472-.361.063-.072a26 26 0 0 1-2.678 1.638q-.884.476-1.797.895c-.232.107-.49.251-.731.325 1.223-.374-.033-.006-.243.072-2.372.887-4.816 1.455-7.31 1.871-.85.142.191-.071.201-.025 0-.001-.697.079-.796.089q-1 .102-2.004.158a49 49 0 0 1-3.848.061 55 55 0 0 1-3.472-.19c-.684-.059-1.365-.139-2.047-.211-.513-.055-.569.176.183.03-.285.055-.939-.138-1.226-.183a76 76 0 0 1-7.689-1.653 102 102 0 0 1-7.107-2.176 90 90 0 0 1-4.642-1.757c-.88-.356.125.067.253.11-.348-.118-.685-.295-1.022-.443-4.298-1.899-8.451-4.154-12.309-6.842q-.753-.525-1.49-1.072c-.177-.131-.423-.28-.585-.44.96.949.195.148-.076-.07a53 53 0 0 1-2.88-2.486 48 48 0 0 1-2.656-2.665 44 44 0 0 1-2.075-2.429q.639.835.285.369c-1.463-1.989-2.788-4.055-3.862-6.282-.127-.264-.246-.533-.373-.797-.455-.948.384 1.024-.024-.042-.211-.552-.426-1.101-.618-1.661a80 80 0 0 1-1.207-3.76l-7.461 5.736c.706.315 1.37.684 2.009 1.12 1.065.727-.49-.464.118.068.35.306.702.605 1.034.932q.394.388.76.802c.122.137.237.281.358.418.279.317.16.52-.25-.335.348.725.95 1.377 1.341 2.094q.265.488.502.989c.072.152.137.376.229.507-.05-.07-.422-1.101-.161-.359.266.757.53 1.507.731 2.285.191.739.311 1.485.457 2.234.118.606-.095-.992-.051-.373.014.192.042.384.059.576a24.7 24.7 0 0 1-.035 4.801c-.006.06-.101.491-.067.582q.135-.978.056-.459a25 25 0 0 1-.583 2.736c-.149.549-.392 2.154-.848 2.504.037-.028.439-.965.092-.226-.083.177-.162.356-.247.533a23 23 0 0 1-1.833 3.158c-.111.159-.234.311-.339.473-.313.481.517-.6.134-.172-.259.289-.496.599-.756.888a20 20 0 0 1-1.772 1.731c-.148.127-.302.247-.45.374.561-.482.092-.067-.035.024a32 32 0 0 1-1.218.842 26 26 0 0 1-2.873 1.615c-.178.085-1.471.622-.682.318-.454.175-.908.35-1.368.507a29.4 29.4 0 0 1-4.605 1.161q-.362.06-.726.115c.165-.025.776-.084-.025-.003a38 38 0 0 1-3.146.201 36 36 0 0 1-4.483-.196 37 37 0 0 1-.641-.072 15 15 0 0 0-.561-.088 41 41 0 0 1-6.087-1.447c-2.291-.733-3.381-1.183-5.409-2.217-3.992-2.036-7.31-4.485-10.524-7.416-3.78-3.447-7.228-7.261-10.375-11.291a128 128 0 0 1-4.448-6.08c-1.507-2.182-3.283-4.206-4.915-6.301-.597-.765-1.877-.685-2.567-.153-.814.628-.921 1.625-.503 2.522Zm55.753 75.757c.866.969 1.413 2.173 2.335 3.095.977.977 2.31 1.776 3.436 2.578a51 51 0 0 0 6.839 4.136c4.802 2.4 9.879 4.402 15.091 5.709 9.897 2.483 22.348 2.735 28.371-7.086 2.766-4.509 3.393-10.575.337-15.11l-5.267 5.267c15.324 8.958 34.309 10.829 51.183 5.406 2.481-.797 4.907-1.768 7.278-2.848 2.465-1.122 4.541-2.516 6.482-4.407 2.434-2.371-.039-7.034-3.423-5.881a56 56 0 0 0-6.224 2.528q-.624.302-1.254.59c-.236.108-1.453.632-.813.366q-1.372.568-2.772 1.066c-3.802 1.352-7.728 2.287-11.718 2.872.811-.119-.689.079-.86.097q-.69.075-1.382.134a62 62 0 0 1-9.315.099 66 66 0 0 1-2.765-.242q-.787-.085-1.574-.181c.079.009.599.089.112.015-.327-.05-.655-.096-.981-.148a60 60 0 0 1-5.818-1.223 58 58 0 0 1-6.577-2.154l-.551-.221c-1.171-.474.326.148-.34-.144a58 58 0 0 1-1.625-.74 59 59 0 0 1-3.175-1.635c-1.501-.829-3.437-.626-4.665.602-1.133 1.133-1.58 3.289-.602 4.665.25.352.452.724.681 1.087.357.566.067.115.002-.056q.11.291.203.59.179.595.275 1.21c-.14-.882-.022.434-.028.704-.007.304-.122 1.159.007.418-.073.423-.157.842-.269 1.257-.113.419-.255.828-.404 1.236.246-.67-.253.505-.388.751-.214.389-.449.76-.692 1.13-.053.08-.464.636-.202.297s-.173.2-.237.271c-.297.329-.597.65-.92.953-.12.113-.248.219-.367.332-.699.665.509-.282-.301.239-1.803 1.16-3.227 1.731-5.4 2.155-3.909.763-8.537.078-12.645-.871-4.44-1.026-8.829-2.338-13.019-4.144a139 139 0 0 1-7.072-3.305c-1.226-.613-2.408-1.304-3.62-1.941-1.256-.66-2.669-.751-3.942-1.363-1.194-.574-2.334.821-1.421 1.842Z"/></svg>