<?xml version="1.0" encoding="utf-8"?>
<!-- Generator: Adobe Illustrator 28.0.0, SVG Export Plug-In . SVG Version: 6.00 Build 0)  -->
<svg version="1.1" id="Layer_1" xmlns="http://www.w3.org/2000/svg" xmlns:xlink="http://www.w3.org/1999/xlink" x="0px" y="0px"
	 viewBox="0 0 3000 3000" style="enable-background:new 0 0 3000 3000;" xml:space="preserve">
<style type="text/css">
	.st0{fill-rule:evenodd;clip-rule:evenodd;fill:#F4F4F4;}
	.st1{fill-rule:evenodd;clip-rule:evenodd;fill:#24447C;}
	.st2{fill:#E84134;}
	.st3{fill:#1BB6EB;}
	.st4{fill:#F4BBB9;}
	.st5{fill:#E8E6DB;}
</style>
<g>
	<polygon class="st0" points="2999.7,0.4 -0.3,0.4 -0.3,3000.4 2999.7,3000.4 2999.7,0.4 	"/>
	<path class="st1" d="M1499.7,444.4c-583.2,0-1056,472.8-1056,1056s472.8,1056,1056,1056c583.2,0,1056-472.8,1056-1056
		S2082.9,444.4,1499.7,444.4L1499.7,444.4z"/>
	<path class="st2" d="M891.7,1304.4c66.2-66.2,157.7-107.2,258.8-107.2c101.1,0,192.6,41,258.8,107.2
		c66.2,66.2,107.2,157.7,107.2,258.8c0,101.1-41,192.6-107.2,258.8c-66.2,66.2-157.7,107.2-258.8,107.2
		c-101.1,0-192.6-41-258.8-107.2s-107.2-157.7-107.2-258.8C784.5,1462.1,825.4,1370.6,891.7,1304.4L891.7,1304.4z"/>
	<path class="st3" d="M676.3,2137.5l1646.7,0c-6.3,8.2-12.8,16.3-19.4,24.3l-1608,0C689.1,2153.8,682.7,2145.7,676.3,2137.5
		L676.3,2137.5z"/>
	<path class="st3" d="M1036.4,2432.9l926.6,0c-139.6,69.5-296.9,108.5-463.3,108.5C1333.2,2541.4,1175.9,2502.4,1036.4,2432.9
		L1036.4,2432.9z"/>
	<path class="st3" d="M1997.4,2415l-995.4,0c-57.3-31.2-111.2-67.7-161.3-108.7l1318,0C2108.6,2347.3,2054.6,2383.7,1997.4,2415
		L1997.4,2415z"/>
	<path class="st3" d="M749.2,2221.9l1500.9,0c-4.7,4.9-9.5,9.8-14.4,14.6c-17.9,17.9-36.5,35.2-55.7,51.8l-1360.7,0
		c-19.2-16.6-37.8-33.9-55.7-51.8C758.7,2231.7,754,2226.8,749.2,2221.9L749.2,2221.9z"/>
	<path class="st3" d="M2267,2204l-1534.6,0c-7.3-8-14.5-16.1-21.6-24.3l1577.7,0C2281.5,2187.9,2274.3,2196,2267,2204L2267,2204z"/>
	<path class="st4" d="M2132.1,2119.6l-644.6-372.2c28.6-52.2,45.4-111.8,46.9-175.2l1003.9,0c-13.9,204.3-86.7,392.4-201.6,547.4
		H2132.1L2132.1,2119.6z"/>
	<path class="st4" d="M1482.1,2119.6l-131.8-228.4c26.2-16,50.2-35,71.8-56.5c21.5-21.5,40.5-45.6,56.5-71.8l617.7,356.6H1482.1
		L1482.1,2119.6z"/>
	<path class="st4" d="M1159.5,2119.6v-172.5c63.4-1.5,123-18.3,175.2-46.9l126.7,219.4H1159.5L1159.5,2119.6z"/>
	<path class="st4" d="M839.6,2119.6l126.7-219.4c52.2,28.6,111.8,45.4,175.2,46.9v172.5L839.6,2119.6L839.6,2119.6z"/>
	<path class="st4" d="M547.5,1921.7l275-158.8c15.9,26.2,34.9,50.2,56.5,71.8c21.6,21.6,45.7,40.5,71.8,56.5l-131.8,228.3H662.7
		C617.4,2058.4,578.7,1992.1,547.5,1921.7L547.5,1921.7z"/>
	<path class="st4" d="M461.1,1572.2h305.5c1.5,63.4,18.3,123,46.9,175.2l-273.2,157.7C496.6,1801.6,469.1,1689.6,461.1,1572.2
		L461.1,1572.2z"/>
	<path class="st5" d="M502.8,1199.6L813.5,1379c-28.6,52.2-45.4,111.8-46.9,175.2H460c-0.9-17.8-1.4-35.7-1.4-53.8
		C458.7,1395.9,474.1,1294.9,502.8,1199.6L502.8,1199.6z"/>
	<path class="st5" d="M711.3,820.6l239.4,414.6c-26.2,15.9-50.3,34.9-71.8,56.5c-21.5,21.5-40.5,45.6-56.5,71.8l-314.2-181.4
		C551.4,1047.6,621.2,925,711.3,820.6L711.3,820.6z"/>
	<path class="st5" d="M1141.5,522.7v656.6c-63.4,1.5-123,18.3-175.2,46.9L723.8,806.3c12.9-14.4,26.1-28.4,39.7-42
		C869.5,658.5,998.1,575.3,1141.5,522.7L1141.5,522.7z"/>
	<path class="st5" d="M1758.6,491.9l-424,734.3c-52.2-28.6-111.8-45.4-175.2-46.9v-663c106.6-36.9,221.1-56.9,340.2-56.9
		C1589.1,459.5,1675.8,470.7,1758.6,491.9L1758.6,491.9z"/>
	<path class="st5" d="M1487.5,1379l853-492.5c125.9,172.1,200.2,384.3,200.2,613.9c0,18-0.5,36-1.4,53.8l-1005,0
		C1532.9,1490.8,1516.1,1431.3,1487.5,1379L1487.5,1379z"/>
	<path class="st5" d="M2329.6,872l-851.2,491.4c-16-26.2-34.9-50.2-56.5-71.8c-21.5-21.5-45.6-40.5-71.8-56.5l426.4-738.5
		c176.2,48.5,333.7,142.1,459.2,267.7C2269.5,798,2300.8,834,2329.6,872L2329.6,872z"/>
</g>
</svg>
